<svg width="392" height="109" viewBox="0 0 392 109" fill="none" xmlns="http://www.w3.org/2000/svg">
<path d="M3.173 2.543V4.519H1.216V3.132C1.216 2.6 1.30467 2.11233 1.482 1.669C1.65933 1.213 1.957 0.775999 2.375 0.357999L3.097 0.928C2.603 1.46 2.32433 1.99833 2.261 2.543H3.173ZM6.365 2.543V4.519H4.408V3.132C4.408 2.6 4.49667 2.11233 4.674 1.669C4.85133 1.213 5.149 0.775999 5.567 0.357999L6.289 0.928C5.795 1.46 5.51633 1.99833 5.453 2.543H6.365ZM14.793 14.152C13.539 14.152 12.4497 13.8733 11.525 13.316C10.6003 12.7587 9.88465 11.9607 9.37798 10.922C8.88398 9.87067 8.63698 8.642 8.63698 7.236C8.63698 5.81733 8.88398 4.58867 9.37798 3.55C9.87198 2.51133 10.5813 1.71333 11.506 1.156C12.4307 0.598666 13.5263 0.319999 14.793 0.319999C16.0597 0.319999 17.1553 0.598666 18.08 1.156C19.0047 1.71333 19.714 2.51133 20.208 3.55C20.702 4.58867 20.949 5.811 20.949 7.217C20.949 8.63567 20.6957 9.86433 20.189 10.903C19.695 11.9417 18.9857 12.746 18.061 13.316C17.1363 13.8733 16.047 14.152 14.793 14.152ZM14.793 12.822C16.2243 12.822 17.339 12.3343 18.137 11.359C18.935 10.3837 19.334 9.003 19.334 7.217C19.334 5.431 18.935 4.05667 18.137 3.094C17.3517 2.13133 16.237 1.65 14.793 1.65C13.349 1.65 12.228 2.13767 11.43 3.113C10.632 4.07567 10.233 5.44367 10.233 7.217C10.233 9.003 10.632 10.3837 11.43 11.359C12.228 12.3343 13.349 12.822 14.793 12.822ZM31.6167 4.443V14H30.1157V12.347C29.8117 12.9297 29.3874 13.373 28.8427 13.677C28.2981 13.981 27.6837 14.133 26.9997 14.133C25.8724 14.133 25.0174 13.8163 24.4347 13.183C23.8521 12.5497 23.5607 11.6123 23.5607 10.371V4.443H25.0997V10.333C25.0997 11.1943 25.2771 11.8277 25.6317 12.233C25.9864 12.6383 26.5247 12.841 27.2467 12.841C28.0954 12.841 28.7794 12.5687 29.2987 12.024C29.8181 11.4667 30.0777 10.7383 30.0777 9.839V4.443H31.6167ZM39.0296 4.215C39.3462 4.215 39.6376 4.253 39.9036 4.329L39.8656 5.735C39.5742 5.63367 39.2386 5.583 38.8586 5.583C37.9339 5.583 37.2436 5.87433 36.7876 6.457C36.3442 7.027 36.1226 7.72367 36.1226 8.547V14H34.5836V7.122C34.5836 6.134 34.5329 5.241 34.4316 4.443H35.8946L36.0466 6.21C36.2872 5.564 36.6736 5.07 37.2056 4.728C37.7376 4.386 38.3456 4.215 39.0296 4.215ZM54.8385 0.0159988V14H53.3185V12.271C53.0398 12.8663 52.6155 13.3287 52.0455 13.658C51.4881 13.9747 50.8358 14.133 50.0885 14.133C49.2525 14.133 48.5115 13.924 47.8655 13.506C47.2321 13.088 46.7381 12.5053 46.3835 11.758C46.0288 10.998 45.8515 10.124 45.8515 9.136C45.8515 8.148 46.0225 7.28667 46.3645 6.552C46.7191 5.80467 47.2195 5.22833 47.8655 4.823C48.5115 4.41767 49.2525 4.215 50.0885 4.215C50.8358 4.215 51.4881 4.37967 52.0455 4.709C52.6028 5.02567 53.0208 5.47533 53.2995 6.058V0.0159988H54.8385ZM50.3925 12.86C51.3298 12.86 52.0518 12.5433 52.5585 11.91C53.0651 11.264 53.3185 10.352 53.3185 9.174C53.3185 8.00867 53.0651 7.10933 52.5585 6.476C52.0518 5.83 51.3298 5.507 50.3925 5.507C49.4551 5.507 48.7205 5.82367 48.1885 6.457C47.6691 7.09033 47.4095 7.98333 47.4095 9.136C47.4095 10.314 47.6691 11.2323 48.1885 11.891C48.7205 12.537 49.4551 12.86 50.3925 12.86ZM65.813 9.174H58.802C58.8147 10.39 59.0934 11.3083 59.638 11.929C60.1954 12.5497 60.9997 12.86 62.051 12.86C63.1657 12.86 64.1917 12.4863 65.129 11.739L65.642 12.86C65.224 13.2527 64.6857 13.563 64.027 13.791C63.381 14.019 62.716 14.133 62.032 14.133C60.5374 14.133 59.3657 13.696 58.517 12.822C57.6684 11.9353 57.244 10.7257 57.244 9.193C57.244 8.21767 57.434 7.35633 57.814 6.609C58.194 5.849 58.726 5.26 59.41 4.842C60.094 4.424 60.873 4.215 61.747 4.215C63.0137 4.215 64.008 4.633 64.73 5.469C65.452 6.29233 65.813 7.43233 65.813 8.889V9.174ZM61.766 5.412C60.968 5.412 60.3157 5.65267 59.809 6.134C59.315 6.61533 58.9984 7.293 58.859 8.167H64.426C64.35 7.26767 64.084 6.58367 63.628 6.115C63.1847 5.64633 62.564 5.412 61.766 5.412ZM76.566 0.0159988V14H75.046V12.271C74.7673 12.8663 74.343 13.3287 73.773 13.658C73.2157 13.9747 72.5633 14.133 71.816 14.133C70.98 14.133 70.239 13.924 69.593 13.506C68.9597 13.088 68.4657 12.5053 68.111 11.758C67.7563 10.998 67.579 10.124 67.579 9.136C67.579 8.148 67.75 7.28667 68.092 6.552C68.4467 5.80467 68.947 5.22833 69.593 4.823C70.239 4.41767 70.98 4.215 71.816 4.215C72.5633 4.215 73.2157 4.37967 73.773 4.709C74.3303 5.02567 74.7483 5.47533 75.027 6.058V0.0159988H76.566ZM72.12 12.86C73.0573 12.86 73.7793 12.5433 74.286 11.91C74.7927 11.264 75.046 10.352 75.046 9.174C75.046 8.00867 74.7927 7.10933 74.286 6.476C73.7793 5.83 73.0573 5.507 72.12 5.507C71.1827 5.507 70.448 5.82367 69.916 6.457C69.3967 7.09033 69.137 7.98333 69.137 9.136C69.137 10.314 69.3967 11.2323 69.916 11.891C70.448 12.537 71.1827 12.86 72.12 12.86ZM79.5416 4.443H81.0806V14H79.5416V4.443ZM81.2706 0.396V2.144H79.3896V0.396H81.2706ZM88.0779 14.133C87.1532 14.133 86.3426 13.9303 85.6459 13.525C84.9619 13.1197 84.4299 12.5497 84.0499 11.815C83.6826 11.0677 83.4989 10.2 83.4989 9.212C83.4989 8.224 83.6889 7.35633 84.0689 6.609C84.4489 5.849 84.9872 5.26 85.6839 4.842C86.3932 4.424 87.2166 4.215 88.1539 4.215C88.7999 4.215 89.4206 4.329 90.0159 4.557C90.6239 4.77233 91.1242 5.07633 91.5169 5.469L91.0039 6.609C90.5226 6.229 90.0539 5.95033 89.5979 5.773C89.1546 5.59567 88.6986 5.507 88.2299 5.507C87.2546 5.507 86.4882 5.83633 85.9309 6.495C85.3736 7.141 85.0949 8.04667 85.0949 9.212C85.0949 10.3647 85.3672 11.264 85.9119 11.91C86.4692 12.5433 87.2419 12.86 88.2299 12.86C88.6986 12.86 89.1546 12.7713 89.5979 12.594C90.0539 12.4167 90.5226 12.138 91.0039 11.758L91.5169 12.898C91.1116 13.278 90.5986 13.582 89.9779 13.81C89.3699 14.0253 88.7366 14.133 88.0779 14.133ZM101.893 4.443V14H100.373V12.271C100.094 12.8663 99.6701 13.3287 99.1001 13.658C98.5428 13.9747 97.8905 14.133 97.1431 14.133C96.2945 14.133 95.5471 13.9303 94.9011 13.525C94.2678 13.1197 93.7738 12.5497 93.4191 11.815C93.0771 11.0677 92.9061 10.2 92.9061 9.212C92.9061 8.224 93.0835 7.35633 93.4381 6.609C93.7928 5.849 94.2868 5.26 94.9201 4.842C95.5661 4.424 96.3071 4.215 97.1431 4.215C97.8905 4.215 98.5428 4.37967 99.1001 4.709C99.6575 5.03833 100.082 5.50067 100.373 6.096V4.443H101.893ZM97.4471 12.86C98.3845 12.86 99.1065 12.5433 99.6131 11.91C100.12 11.264 100.373 10.352 100.373 9.174C100.373 7.996 100.12 7.09033 99.6131 6.457C99.1065 5.82367 98.3845 5.507 97.4471 5.507C96.5098 5.507 95.7751 5.83633 95.2431 6.495C94.7238 7.141 94.4641 8.04667 94.4641 9.212C94.4641 10.3773 94.7238 11.2767 95.2431 11.91C95.7625 12.5433 96.4971 12.86 97.4471 12.86ZM106.921 5.659V10.884C106.921 11.5933 107.066 12.0937 107.358 12.385C107.649 12.6637 108.061 12.803 108.593 12.803C108.947 12.803 109.289 12.746 109.619 12.632V13.943C109.226 14.0697 108.783 14.133 108.289 14.133C107.377 14.133 106.661 13.8797 106.142 13.373C105.635 12.8537 105.382 12.0937 105.382 11.093V5.659H103.52V4.443H105.382V1.992L106.921 1.441V4.443H109.657V5.659H106.921ZM119.51 9.174H112.499C112.512 10.39 112.791 11.3083 113.335 11.929C113.893 12.5497 114.697 12.86 115.748 12.86C116.863 12.86 117.889 12.4863 118.826 11.739L119.339 12.86C118.921 13.2527 118.383 13.563 117.724 13.791C117.078 14.019 116.413 14.133 115.729 14.133C114.235 14.133 113.063 13.696 112.214 12.822C111.366 11.9353 110.941 10.7257 110.941 9.193C110.941 8.21767 111.131 7.35633 111.511 6.609C111.891 5.849 112.423 5.26 113.107 4.842C113.791 4.424 114.57 4.215 115.444 4.215C116.711 4.215 117.705 4.633 118.427 5.469C119.149 6.29233 119.51 7.43233 119.51 8.889V9.174ZM115.463 5.412C114.665 5.412 114.013 5.65267 113.506 6.134C113.012 6.61533 112.696 7.293 112.556 8.167H118.123C118.047 7.26767 117.781 6.58367 117.325 6.115C116.882 5.64633 116.261 5.412 115.463 5.412ZM130.263 0.0159988V14H128.743V12.271C128.465 12.8663 128.04 13.3287 127.47 13.658C126.913 13.9747 126.261 14.133 125.513 14.133C124.677 14.133 123.936 13.924 123.29 13.506C122.657 13.088 122.163 12.5053 121.808 11.758C121.454 10.998 121.276 10.124 121.276 9.136C121.276 8.148 121.447 7.28667 121.789 6.552C122.144 5.80467 122.644 5.22833 123.29 4.823C123.936 4.41767 124.677 4.215 125.513 4.215C126.261 4.215 126.913 4.37967 127.47 4.709C128.028 5.02567 128.446 5.47533 128.724 6.058V0.0159988H130.263ZM125.817 12.86C126.755 12.86 127.477 12.5433 127.983 11.91C128.49 11.264 128.743 10.352 128.743 9.174C128.743 8.00867 128.49 7.10933 127.983 6.476C127.477 5.83 126.755 5.507 125.817 5.507C124.88 5.507 124.145 5.82367 123.613 6.457C123.094 7.09033 122.834 7.98333 122.834 9.136C122.834 10.314 123.094 11.2323 123.613 11.891C124.145 12.537 124.88 12.86 125.817 12.86ZM142.962 4.215C143.798 4.215 144.539 4.424 145.185 4.842C145.831 5.26 146.331 5.849 146.686 6.609C147.041 7.35633 147.218 8.224 147.218 9.212C147.218 10.2 147.041 11.0677 146.686 11.815C146.331 12.5497 145.831 13.1197 145.185 13.525C144.552 13.9303 143.811 14.133 142.962 14.133C142.215 14.133 141.562 13.9683 141.005 13.639C140.448 13.3097 140.023 12.841 139.732 12.233V18.104H138.193V7.122C138.193 6.134 138.142 5.241 138.041 4.443H139.504L139.656 6.286C139.922 5.62733 140.34 5.12067 140.91 4.766C141.493 4.39867 142.177 4.215 142.962 4.215ZM142.677 12.86C143.614 12.86 144.336 12.5433 144.843 11.91C145.362 11.2767 145.622 10.3773 145.622 9.212C145.622 8.04667 145.362 7.141 144.843 6.495C144.324 5.83633 143.602 5.507 142.677 5.507C141.727 5.507 140.999 5.82367 140.492 6.457C139.985 7.09033 139.732 7.996 139.732 9.174C139.732 10.352 139.985 11.264 140.492 11.91C140.999 12.5433 141.727 12.86 142.677 12.86ZM158.003 4.443V14H156.483V12.271C156.204 12.8663 155.78 13.3287 155.21 13.658C154.652 13.9747 154 14.133 153.253 14.133C152.404 14.133 151.657 13.9303 151.011 13.525C150.377 13.1197 149.883 12.5497 149.529 11.815C149.187 11.0677 149.016 10.2 149.016 9.212C149.016 8.224 149.193 7.35633 149.548 6.609C149.902 5.849 150.396 5.26 151.03 4.842C151.676 4.424 152.417 4.215 153.253 4.215C154 4.215 154.652 4.37967 155.21 4.709C155.767 5.03833 156.191 5.50067 156.483 6.096V4.443H158.003ZM153.557 12.86C154.494 12.86 155.216 12.5433 155.723 11.91C156.229 11.264 156.483 10.352 156.483 9.174C156.483 7.996 156.229 7.09033 155.723 6.457C155.216 5.82367 154.494 5.507 153.557 5.507C152.619 5.507 151.885 5.83633 151.353 6.495C150.833 7.141 150.574 8.04667 150.574 9.212C150.574 10.3773 150.833 11.2767 151.353 11.91C151.872 12.5433 152.607 12.86 153.557 12.86ZM163.03 5.659V10.884C163.03 11.5933 163.176 12.0937 163.467 12.385C163.758 12.6637 164.17 12.803 164.702 12.803C165.057 12.803 165.399 12.746 165.728 12.632V13.943C165.335 14.0697 164.892 14.133 164.398 14.133C163.486 14.133 162.77 13.8797 162.251 13.373C161.744 12.8537 161.491 12.0937 161.491 11.093V5.659H159.629V4.443H161.491V1.992L163.03 1.441V4.443H165.766V5.659H163.03ZM167.621 4.443H169.16V14H167.621V4.443ZM169.35 0.396V2.144H167.469V0.396H169.35ZM180.147 9.174H173.136C173.149 10.39 173.427 11.3083 173.972 11.929C174.529 12.5497 175.334 12.86 176.385 12.86C177.5 12.86 178.526 12.4863 179.463 11.739L179.976 12.86C179.558 13.2527 179.02 13.563 178.361 13.791C177.715 14.019 177.05 14.133 176.366 14.133C174.871 14.133 173.7 13.696 172.851 12.822C172.002 11.9353 171.578 10.7257 171.578 9.193C171.578 8.21767 171.768 7.35633 172.148 6.609C172.528 5.849 173.06 5.26 173.744 4.842C174.428 4.424 175.207 4.215 176.081 4.215C177.348 4.215 178.342 4.633 179.064 5.469C179.786 6.29233 180.147 7.43233 180.147 8.889V9.174ZM176.1 5.412C175.302 5.412 174.65 5.65267 174.143 6.134C173.649 6.61533 173.332 7.293 173.193 8.167H178.76C178.684 7.26767 178.418 6.58367 177.962 6.115C177.519 5.64633 176.898 5.412 176.1 5.412ZM187.252 4.215C189.545 4.215 190.691 5.47533 190.691 7.996V14H189.152V8.072C189.152 7.18533 188.975 6.53933 188.62 6.134C188.265 5.716 187.708 5.507 186.948 5.507C186.061 5.507 185.352 5.77933 184.82 6.324C184.288 6.86867 184.022 7.60333 184.022 8.528V14H182.483V7.122C182.483 6.134 182.432 5.241 182.331 4.443H183.794L183.946 6.153C184.237 5.53233 184.674 5.05733 185.257 4.728C185.84 4.386 186.505 4.215 187.252 4.215ZM195.649 5.659V10.884C195.649 11.5933 195.795 12.0937 196.086 12.385C196.378 12.6637 196.789 12.803 197.321 12.803C197.676 12.803 198.018 12.746 198.347 12.632V13.943C197.955 14.0697 197.511 14.133 197.017 14.133C196.105 14.133 195.39 13.8797 194.87 13.373C194.364 12.8537 194.11 12.0937 194.11 11.093V5.659H192.248V4.443H194.11V1.992L195.649 1.441V4.443H198.385V5.659H195.649ZM213.193 9.174H206.182C206.195 10.39 206.473 11.3083 207.018 11.929C207.575 12.5497 208.38 12.86 209.431 12.86C210.546 12.86 211.572 12.4863 212.509 11.739L213.022 12.86C212.604 13.2527 212.066 13.563 211.407 13.791C210.761 14.019 210.096 14.133 209.412 14.133C207.917 14.133 206.746 13.696 205.897 12.822C205.048 11.9353 204.624 10.7257 204.624 9.193C204.624 8.21767 204.814 7.35633 205.194 6.609C205.574 5.849 206.106 5.26 206.79 4.842C207.474 4.424 208.253 4.215 209.127 4.215C210.394 4.215 211.388 4.633 212.11 5.469C212.832 6.29233 213.193 7.43233 213.193 8.889V9.174ZM209.146 5.412C208.348 5.412 207.696 5.65267 207.189 6.134C206.695 6.61533 206.378 7.293 206.239 8.167H211.806C211.73 7.26767 211.464 6.58367 211.008 6.115C210.565 5.64633 209.944 5.412 209.146 5.412ZM220.298 4.215C222.591 4.215 223.737 5.47533 223.737 7.996V14H222.198V8.072C222.198 7.18533 222.021 6.53933 221.666 6.134C221.311 5.716 220.754 5.507 219.994 5.507C219.107 5.507 218.398 5.77933 217.866 6.324C217.334 6.86867 217.068 7.60333 217.068 8.528V14H215.529V7.122C215.529 6.134 215.478 5.241 215.377 4.443H216.84L216.992 6.153C217.283 5.53233 217.72 5.05733 218.303 4.728C218.886 4.386 219.551 4.215 220.298 4.215ZM235.155 4.443V13.924C235.155 15.3427 234.788 16.413 234.053 17.135C233.331 17.8697 232.261 18.237 230.842 18.237C229.385 18.237 228.131 17.9077 227.08 17.249L227.346 15.995C227.954 16.337 228.524 16.584 229.056 16.736C229.601 16.888 230.196 16.964 230.842 16.964C231.767 16.964 232.463 16.717 232.932 16.223C233.401 15.7417 233.635 15.0197 233.635 14.057V11.796C233.344 12.404 232.913 12.879 232.343 13.221C231.786 13.5503 231.121 13.715 230.348 13.715C229.512 13.715 228.765 13.5187 228.106 13.126C227.46 12.7333 226.96 12.176 226.605 11.454C226.25 10.732 226.073 9.90233 226.073 8.965C226.073 8.02767 226.25 7.198 226.605 6.476C226.96 5.754 227.46 5.19667 228.106 4.804C228.765 4.41133 229.512 4.215 230.348 4.215C231.108 4.215 231.767 4.37967 232.324 4.709C232.894 5.03833 233.325 5.50067 233.616 6.096V4.443H235.155ZM230.652 12.423C231.577 12.423 232.299 12.119 232.818 11.511C233.35 10.8903 233.616 10.0417 233.616 8.965C233.616 7.88833 233.35 7.046 232.818 6.438C232.299 5.81733 231.577 5.507 230.652 5.507C229.715 5.507 228.974 5.81733 228.429 6.438C227.897 7.046 227.631 7.88833 227.631 8.965C227.631 10.0417 227.897 10.8903 228.429 11.511C228.974 12.119 229.715 12.423 230.652 12.423ZM246.527 4.443V14H245.007V12.271C244.728 12.8663 244.304 13.3287 243.734 13.658C243.177 13.9747 242.524 14.133 241.777 14.133C240.928 14.133 240.181 13.9303 239.535 13.525C238.902 13.1197 238.408 12.5497 238.053 11.815C237.711 11.0677 237.54 10.2 237.54 9.212C237.54 8.224 237.717 7.35633 238.072 6.609C238.427 5.849 238.921 5.26 239.554 4.842C240.2 4.424 240.941 4.215 241.777 4.215C242.524 4.215 243.177 4.37967 243.734 4.709C244.291 5.03833 244.716 5.50067 245.007 6.096V4.443H246.527ZM242.081 12.86C243.018 12.86 243.74 12.5433 244.247 11.91C244.754 11.264 245.007 10.352 245.007 9.174C245.007 7.996 244.754 7.09033 244.247 6.457C243.74 5.82367 243.018 5.507 242.081 5.507C241.144 5.507 240.409 5.83633 239.877 6.495C239.358 7.141 239.098 8.04667 239.098 9.212C239.098 10.3773 239.358 11.2767 239.877 11.91C240.396 12.5433 241.131 12.86 242.081 12.86ZM258.015 4.443V13.924C258.015 15.3427 257.647 16.413 256.913 17.135C256.191 17.8697 255.12 18.237 253.702 18.237C252.245 18.237 250.991 17.9077 249.94 17.249L250.206 15.995C250.814 16.337 251.384 16.584 251.916 16.736C252.46 16.888 253.056 16.964 253.702 16.964C254.626 16.964 255.323 16.717 255.792 16.223C256.26 15.7417 256.495 15.0197 256.495 14.057V11.796C256.203 12.404 255.773 12.879 255.203 13.221C254.645 13.5503 253.98 13.715 253.208 13.715C252.372 13.715 251.624 13.5187 250.966 13.126C250.32 12.7333 249.819 12.176 249.465 11.454C249.11 10.732 248.933 9.90233 248.933 8.965C248.933 8.02767 249.11 7.198 249.465 6.476C249.819 5.754 250.32 5.19667 250.966 4.804C251.624 4.41133 252.372 4.215 253.208 4.215C253.968 4.215 254.626 4.37967 255.184 4.709C255.754 5.03833 256.184 5.50067 256.476 6.096V4.443H258.015ZM253.512 12.423C254.436 12.423 255.158 12.119 255.678 11.511C256.21 10.8903 256.476 10.0417 256.476 8.965C256.476 7.88833 256.21 7.046 255.678 6.438C255.158 5.81733 254.436 5.507 253.512 5.507C252.574 5.507 251.833 5.81733 251.289 6.438C250.757 7.046 250.491 7.88833 250.491 8.965C250.491 10.0417 250.757 10.8903 251.289 11.511C251.833 12.119 252.574 12.423 253.512 12.423ZM268.968 9.174H261.957C261.97 10.39 262.249 11.3083 262.793 11.929C263.351 12.5497 264.155 12.86 265.206 12.86C266.321 12.86 267.347 12.4863 268.284 11.739L268.797 12.86C268.379 13.2527 267.841 13.563 267.182 13.791C266.536 14.019 265.871 14.133 265.187 14.133C263.693 14.133 262.521 13.696 261.672 12.822C260.824 11.9353 260.399 10.7257 260.399 9.193C260.399 8.21767 260.589 7.35633 260.969 6.609C261.349 5.849 261.881 5.26 262.565 4.842C263.249 4.424 264.028 4.215 264.902 4.215C266.169 4.215 267.163 4.633 267.885 5.469C268.607 6.29233 268.968 7.43233 268.968 8.889V9.174ZM264.921 5.412C264.123 5.412 263.471 5.65267 262.964 6.134C262.47 6.61533 262.154 7.293 262.014 8.167H267.581C267.505 7.26767 267.239 6.58367 266.783 6.115C266.34 5.64633 265.719 5.412 264.921 5.412ZM281.906 4.215C284.022 4.215 285.079 5.47533 285.079 7.996V14H283.54V8.072C283.54 7.17267 283.382 6.52033 283.065 6.115C282.761 5.70967 282.261 5.507 281.564 5.507C280.754 5.507 280.12 5.77933 279.664 6.324C279.208 6.86867 278.98 7.60967 278.98 8.547V14H277.441V8.072C277.441 7.18533 277.283 6.53933 276.966 6.134C276.65 5.716 276.143 5.507 275.446 5.507C274.636 5.507 273.996 5.77933 273.527 6.324C273.071 6.86867 272.843 7.60967 272.843 8.547V14H271.304V7.122C271.304 6.134 271.254 5.241 271.152 4.443H272.615L272.767 6.115C273.033 5.507 273.426 5.03833 273.945 4.709C274.477 4.37967 275.092 4.215 275.788 4.215C276.548 4.215 277.169 4.367 277.65 4.671C278.132 4.975 278.486 5.44367 278.714 6.077C279.006 5.507 279.43 5.05733 279.987 4.728C280.557 4.386 281.197 4.215 281.906 4.215ZM296.002 9.174H288.991C289.004 10.39 289.283 11.3083 289.827 11.929C290.385 12.5497 291.189 12.86 292.24 12.86C293.355 12.86 294.381 12.4863 295.318 11.739L295.831 12.86C295.413 13.2527 294.875 13.563 294.216 13.791C293.57 14.019 292.905 14.133 292.221 14.133C290.727 14.133 289.555 13.696 288.706 12.822C287.858 11.9353 287.433 10.7257 287.433 9.193C287.433 8.21767 287.623 7.35633 288.003 6.609C288.383 5.849 288.915 5.26 289.599 4.842C290.283 4.424 291.062 4.215 291.936 4.215C293.203 4.215 294.197 4.633 294.919 5.469C295.641 6.29233 296.002 7.43233 296.002 8.889V9.174ZM291.955 5.412C291.157 5.412 290.505 5.65267 289.998 6.134C289.504 6.61533 289.188 7.293 289.048 8.167H294.615C294.539 7.26767 294.273 6.58367 293.817 6.115C293.374 5.64633 292.753 5.412 291.955 5.412ZM303.107 4.215C305.4 4.215 306.546 5.47533 306.546 7.996V14H305.007V8.072C305.007 7.18533 304.83 6.53933 304.475 6.134C304.121 5.716 303.563 5.507 302.803 5.507C301.917 5.507 301.207 5.77933 300.675 6.324C300.143 6.86867 299.877 7.60333 299.877 8.528V14H298.338V7.122C298.338 6.134 298.288 5.241 298.186 4.443H299.649L299.801 6.153C300.093 5.53233 300.53 5.05733 301.112 4.728C301.695 4.386 302.36 4.215 303.107 4.215ZM311.505 5.659V10.884C311.505 11.5933 311.65 12.0937 311.942 12.385C312.233 12.6637 312.645 12.803 313.177 12.803C313.531 12.803 313.873 12.746 314.203 12.632V13.943C313.81 14.0697 313.367 14.133 312.873 14.133C311.961 14.133 311.245 13.8797 310.726 13.373C310.219 12.8537 309.966 12.0937 309.966 11.093V5.659H308.104V4.443H309.966V1.992L311.505 1.441V4.443H314.241V5.659H311.505ZM329.466 4.443V14H327.946V12.271C327.668 12.8663 327.243 13.3287 326.673 13.658C326.116 13.9747 325.464 14.133 324.716 14.133C323.868 14.133 323.12 13.9303 322.474 13.525C321.841 13.1197 321.347 12.5497 320.992 11.815C320.65 11.0677 320.479 10.2 320.479 9.212C320.479 8.224 320.657 7.35633 321.011 6.609C321.366 5.849 321.86 5.26 322.493 4.842C323.139 4.424 323.88 4.215 324.716 4.215C325.464 4.215 326.116 4.37967 326.673 4.709C327.231 5.03833 327.655 5.50067 327.946 6.096V4.443H329.466ZM325.02 12.86C325.958 12.86 326.68 12.5433 327.186 11.91C327.693 11.264 327.946 10.352 327.946 9.174C327.946 7.996 327.693 7.09033 327.186 6.457C326.68 5.82367 325.958 5.507 325.02 5.507C324.083 5.507 323.348 5.83633 322.816 6.495C322.297 7.141 322.037 8.04667 322.037 9.212C322.037 10.3773 322.297 11.2767 322.816 11.91C323.336 12.5433 324.07 12.86 325.02 12.86ZM337.211 4.215C338.047 4.215 338.788 4.424 339.434 4.842C340.08 5.26 340.58 5.849 340.935 6.609C341.29 7.35633 341.467 8.224 341.467 9.212C341.467 10.2 341.29 11.0677 340.935 11.815C340.58 12.5497 340.08 13.1197 339.434 13.525C338.801 13.9303 338.06 14.133 337.211 14.133C336.464 14.133 335.811 13.9683 335.254 13.639C334.697 13.3097 334.272 12.841 333.981 12.233V18.104H332.442V7.122C332.442 6.134 332.391 5.241 332.29 4.443H333.753L333.905 6.286C334.171 5.62733 334.589 5.12067 335.159 4.766C335.742 4.39867 336.426 4.215 337.211 4.215ZM336.926 12.86C337.863 12.86 338.585 12.5433 339.092 11.91C339.611 11.2767 339.871 10.3773 339.871 9.212C339.871 8.04667 339.611 7.141 339.092 6.495C338.573 5.83633 337.851 5.507 336.926 5.507C335.976 5.507 335.248 5.82367 334.741 6.457C334.234 7.09033 333.981 7.996 333.981 9.174C333.981 10.352 334.234 11.264 334.741 11.91C335.248 12.5433 335.976 12.86 336.926 12.86ZM348.604 4.215C349.44 4.215 350.181 4.424 350.827 4.842C351.473 5.26 351.973 5.849 352.328 6.609C352.682 7.35633 352.86 8.224 352.86 9.212C352.86 10.2 352.682 11.0677 352.328 11.815C351.973 12.5497 351.473 13.1197 350.827 13.525C350.193 13.9303 349.452 14.133 348.604 14.133C347.856 14.133 347.204 13.9683 346.647 13.639C346.089 13.3097 345.665 12.841 345.374 12.233V18.104H343.835V7.122C343.835 6.134 343.784 5.241 343.683 4.443H345.146L345.298 6.286C345.564 5.62733 345.982 5.12067 346.552 4.766C347.134 4.39867 347.818 4.215 348.604 4.215ZM348.319 12.86C349.256 12.86 349.978 12.5433 350.485 11.91C351.004 11.2767 351.264 10.3773 351.264 9.212C351.264 8.04667 351.004 7.141 350.485 6.495C349.965 5.83633 349.243 5.507 348.319 5.507C347.369 5.507 346.64 5.82367 346.134 6.457C345.627 7.09033 345.374 7.996 345.374 9.174C345.374 10.352 345.627 11.264 346.134 11.91C346.64 12.5433 347.369 12.86 348.319 12.86ZM368.598 4.443V14H367.078V12.271C366.8 12.8663 366.375 13.3287 365.805 13.658C365.248 13.9747 364.596 14.133 363.848 14.133C363 14.133 362.252 13.9303 361.606 13.525C360.973 13.1197 360.479 12.5497 360.124 11.815C359.782 11.0677 359.611 10.2 359.611 9.212C359.611 8.224 359.789 7.35633 360.143 6.609C360.498 5.849 360.992 5.26 361.625 4.842C362.271 4.424 363.012 4.215 363.848 4.215C364.596 4.215 365.248 4.37967 365.805 4.709C366.363 5.03833 366.787 5.50067 367.078 6.096V4.443H368.598ZM364.152 12.86C365.09 12.86 365.812 12.5433 366.318 11.91C366.825 11.264 367.078 10.352 367.078 9.174C367.078 7.996 366.825 7.09033 366.318 6.457C365.812 5.82367 365.09 5.507 364.152 5.507C363.215 5.507 362.48 5.83633 361.948 6.495C361.429 7.141 361.169 8.04667 361.169 9.212C361.169 10.3773 361.429 11.2767 361.948 11.91C362.468 12.5433 363.202 12.86 364.152 12.86ZM376.343 4.215C378.635 4.215 379.782 5.47533 379.782 7.996V14H378.243V8.072C378.243 7.18533 378.065 6.53933 377.711 6.134C377.356 5.716 376.799 5.507 376.039 5.507C375.152 5.507 374.443 5.77933 373.911 6.324C373.379 6.86867 373.113 7.60333 373.113 8.528V14H371.574V7.122C371.574 6.134 371.523 5.241 371.422 4.443H372.885L373.037 6.153C373.328 5.53233 373.765 5.05733 374.348 4.728C374.93 4.386 375.595 4.215 376.343 4.215ZM391.105 0.0159988V14H389.585V12.271C389.306 12.8663 388.882 13.3287 388.312 13.658C387.755 13.9747 387.102 14.133 386.355 14.133C385.519 14.133 384.778 13.924 384.132 13.506C383.499 13.088 383.005 12.5053 382.65 11.758C382.295 10.998 382.118 10.124 382.118 9.136C382.118 8.148 382.289 7.28667 382.631 6.552C382.986 5.80467 383.486 5.22833 384.132 4.823C384.778 4.41767 385.519 4.215 386.355 4.215C387.102 4.215 387.755 4.37967 388.312 4.709C388.869 5.02567 389.287 5.47533 389.566 6.058V0.0159988H391.105ZM386.659 12.86C387.596 12.86 388.318 12.5433 388.825 11.91C389.332 11.264 389.585 10.352 389.585 9.174C389.585 8.00867 389.332 7.10933 388.825 6.476C388.318 5.83 387.596 5.507 386.659 5.507C385.722 5.507 384.987 5.82367 384.455 6.457C383.936 7.09033 383.676 7.98333 383.676 9.136C383.676 10.314 383.936 11.2323 384.455 11.891C384.987 12.537 385.722 12.86 386.659 12.86ZM15.998 34.443L12.464 44H10.982L8.246 36.533L5.529 44H4.047L0.513 34.443H2.128L4.826 42.157L7.619 34.443H8.968L11.723 42.176L14.478 34.443H15.998ZM25.8833 39.174H18.8723C18.885 40.39 19.1637 41.3083 19.7083 41.929C20.2657 42.5497 21.07 42.86 22.1213 42.86C23.236 42.86 24.262 42.4863 25.1993 41.739L25.7123 42.86C25.2943 43.2527 24.756 43.563 24.0973 43.791C23.4513 44.019 22.7863 44.133 22.1023 44.133C20.6077 44.133 19.436 43.696 18.5873 42.822C17.7387 41.9353 17.3143 40.7257 17.3143 39.193C17.3143 38.2177 17.5043 37.3563 17.8843 36.609C18.2643 35.849 18.7963 35.26 19.4803 34.842C20.1643 34.424 20.9433 34.215 21.8173 34.215C23.084 34.215 24.0783 34.633 24.8003 35.469C25.5223 36.2923 25.8833 37.4323 25.8833 38.889V39.174ZM21.8363 35.412C21.0383 35.412 20.386 35.6527 19.8793 36.134C19.3853 36.6153 19.0687 37.293 18.9293 38.167H24.4963C24.4203 37.2677 24.1543 36.5837 23.6983 36.115C23.255 35.6463 22.6343 35.412 21.8363 35.412ZM32.9883 34.215C33.8243 34.215 34.5653 34.4177 35.2113 34.823C35.8573 35.2283 36.3576 35.8047 36.7123 36.552C37.067 37.2867 37.2443 38.148 37.2443 39.136C37.2443 40.124 37.067 40.998 36.7123 41.758C36.3576 42.5053 35.8573 43.088 35.2113 43.506C34.5653 43.924 33.8243 44.133 32.9883 44.133C32.241 44.133 31.5886 43.9683 31.0313 43.639C30.474 43.3097 30.0496 42.841 29.7583 42.233V44H28.2193V30.016H29.7583V36.134C30.037 35.5133 30.455 35.0383 31.0123 34.709C31.5823 34.3797 32.241 34.215 32.9883 34.215ZM32.7033 42.86C33.628 42.86 34.35 42.537 34.8693 41.891C35.3886 41.2323 35.6483 40.314 35.6483 39.136C35.6483 37.9833 35.3886 37.0903 34.8693 36.457C34.3626 35.8237 33.6406 35.507 32.7033 35.507C31.7533 35.507 31.025 35.8237 30.5183 36.457C30.0116 37.0903 29.7583 37.996 29.7583 39.174C29.7583 40.352 30.0116 41.264 30.5183 41.91C31.025 42.5433 31.7533 42.86 32.7033 42.86ZM49.335 34.215C50.171 34.215 50.912 34.424 51.558 34.842C52.204 35.26 52.7043 35.849 53.059 36.609C53.4137 37.3563 53.591 38.224 53.591 39.212C53.591 40.2 53.4137 41.0677 53.059 41.815C52.7043 42.5497 52.204 43.1197 51.558 43.525C50.9247 43.9303 50.1837 44.133 49.335 44.133C48.5877 44.133 47.9353 43.9683 47.378 43.639C46.8207 43.3097 46.3963 42.841 46.105 42.233V48.104H44.566V37.122C44.566 36.134 44.5153 35.241 44.414 34.443H45.877L46.029 36.286C46.295 35.6273 46.713 35.1207 47.283 34.766C47.8657 34.3987 48.5497 34.215 49.335 34.215ZM49.05 42.86C49.9873 42.86 50.7093 42.5433 51.216 41.91C51.7353 41.2767 51.995 40.3773 51.995 39.212C51.995 38.0467 51.7353 37.141 51.216 36.495C50.6967 35.8363 49.9747 35.507 49.05 35.507C48.1 35.507 47.3717 35.8237 46.865 36.457C46.3583 37.0903 46.105 37.996 46.105 39.174C46.105 40.352 46.3583 41.264 46.865 41.91C47.3717 42.5433 48.1 42.86 49.05 42.86ZM59.9106 44.133C59.0112 44.133 58.2196 43.9303 57.5356 43.525C56.8516 43.1197 56.3196 42.5433 55.9396 41.796C55.5722 41.0487 55.3886 40.1747 55.3886 39.174C55.3886 38.1733 55.5722 37.2993 55.9396 36.552C56.3196 35.8047 56.8516 35.2283 57.5356 34.823C58.2196 34.4177 59.0112 34.215 59.9106 34.215C60.8099 34.215 61.6016 34.4177 62.2856 34.823C62.9696 35.2283 63.4952 35.8047 63.8626 36.552C64.2426 37.2993 64.4326 38.1733 64.4326 39.174C64.4326 40.1747 64.2426 41.0487 63.8626 41.796C63.4952 42.5433 62.9696 43.1197 62.2856 43.525C61.6016 43.9303 60.8099 44.133 59.9106 44.133ZM59.9106 42.86C60.8606 42.86 61.5889 42.5497 62.0956 41.929C62.6022 41.2957 62.8556 40.3773 62.8556 39.174C62.8556 38.0087 62.5959 37.1093 62.0766 36.476C61.5572 35.83 60.8352 35.507 59.9106 35.507C58.9732 35.507 58.2449 35.83 57.7256 36.476C57.2062 37.1093 56.9466 38.0087 56.9466 39.174C56.9466 40.3773 57.1999 41.2957 57.7066 41.929C58.2259 42.5497 58.9606 42.86 59.9106 42.86ZM71.2776 34.215C71.5943 34.215 71.8856 34.253 72.1516 34.329L72.1136 35.735C71.8223 35.6337 71.4866 35.583 71.1066 35.583C70.1819 35.583 69.4916 35.8743 69.0356 36.457C68.5923 37.027 68.3706 37.7237 68.3706 38.547V44H66.8316V37.122C66.8316 36.134 66.7809 35.241 66.6796 34.443H68.1426L68.2946 36.21C68.5353 35.564 68.9216 35.07 69.4536 34.728C69.9856 34.386 70.5936 34.215 71.2776 34.215ZM76.5096 35.659V40.884C76.5096 41.5933 76.6553 42.0937 76.9466 42.385C77.2379 42.6637 77.6496 42.803 78.1816 42.803C78.5363 42.803 78.8783 42.746 79.2076 42.632V43.943C78.8149 44.0697 78.3716 44.133 77.8776 44.133C76.9656 44.133 76.2499 43.8797 75.7306 43.373C75.2239 42.8537 74.9706 42.0937 74.9706 41.093V35.659H73.1086V34.443H74.9706V31.992L76.5096 31.441V34.443H79.2456V35.659H76.5096ZM89.5172 34.443V44H87.9972V42.271C87.7185 42.8663 87.2942 43.3287 86.7242 43.658C86.1668 43.9747 85.5145 44.133 84.7672 44.133C83.9185 44.133 83.1712 43.9303 82.5252 43.525C81.8918 43.1197 81.3978 42.5497 81.0432 41.815C80.7012 41.0677 80.5302 40.2 80.5302 39.212C80.5302 38.224 80.7075 37.3563 81.0622 36.609C81.4168 35.849 81.9108 35.26 82.5442 34.842C83.1902 34.424 83.9312 34.215 84.7672 34.215C85.5145 34.215 86.1668 34.3797 86.7242 34.709C87.2815 35.0383 87.7058 35.5007 87.9972 36.096V34.443H89.5172ZM85.0712 42.86C86.0085 42.86 86.7305 42.5433 87.2372 41.91C87.7438 41.264 87.9972 40.352 87.9972 39.174C87.9972 37.996 87.7438 37.0903 87.2372 36.457C86.7305 35.8237 86.0085 35.507 85.0712 35.507C84.1338 35.507 83.3992 35.8363 82.8672 36.495C82.3478 37.141 82.0882 38.0467 82.0882 39.212C82.0882 40.3773 82.3478 41.2767 82.8672 41.91C83.3865 42.5433 84.1212 42.86 85.0712 42.86ZM92.4927 30.016H94.0317V44H92.4927V30.016ZM110.391 34.443V44H108.871V42.271C108.593 42.8663 108.168 43.3287 107.598 43.658C107.041 43.9747 106.389 44.133 105.641 44.133C104.793 44.133 104.045 43.9303 103.399 43.525C102.766 43.1197 102.272 42.5497 101.917 41.815C101.575 41.0677 101.404 40.2 101.404 39.212C101.404 38.224 101.582 37.3563 101.936 36.609C102.291 35.849 102.785 35.26 103.418 34.842C104.064 34.424 104.805 34.215 105.641 34.215C106.389 34.215 107.041 34.3797 107.598 34.709C108.156 35.0383 108.58 35.5007 108.871 36.096V34.443H110.391ZM105.945 42.86C106.883 42.86 107.605 42.5433 108.111 41.91C108.618 41.264 108.871 40.352 108.871 39.174C108.871 37.996 108.618 37.0903 108.111 36.457C107.605 35.8237 106.883 35.507 105.945 35.507C105.008 35.507 104.273 35.8363 103.741 36.495C103.222 37.141 102.962 38.0467 102.962 39.212C102.962 40.3773 103.222 41.2767 103.741 41.91C104.261 42.5433 104.995 42.86 105.945 42.86ZM113.367 30.016H114.906V44H113.367V30.016ZM117.894 30.016H119.433V44H117.894V30.016ZM126.373 44.133C125.474 44.133 124.682 43.9303 123.998 43.525C123.314 43.1197 122.782 42.5433 122.402 41.796C122.035 41.0487 121.851 40.1747 121.851 39.174C121.851 38.1733 122.035 37.2993 122.402 36.552C122.782 35.8047 123.314 35.2283 123.998 34.823C124.682 34.4177 125.474 34.215 126.373 34.215C127.273 34.215 128.064 34.4177 128.748 34.823C129.432 35.2283 129.958 35.8047 130.325 36.552C130.705 37.2993 130.895 38.1733 130.895 39.174C130.895 40.1747 130.705 41.0487 130.325 41.796C129.958 42.5433 129.432 43.1197 128.748 43.525C128.064 43.9303 127.273 44.133 126.373 44.133ZM126.373 42.86C127.323 42.86 128.052 42.5497 128.558 41.929C129.065 41.2957 129.318 40.3773 129.318 39.174C129.318 38.0087 129.059 37.1093 128.539 36.476C128.02 35.83 127.298 35.507 126.373 35.507C125.436 35.507 124.708 35.83 124.188 36.476C123.669 37.1093 123.409 38.0087 123.409 39.174C123.409 40.3773 123.663 41.2957 124.169 41.929C124.689 42.5497 125.423 42.86 126.373 42.86ZM147.699 34.443L144.165 44H142.683L139.947 36.533L137.23 44H135.748L132.214 34.443H133.829L136.527 42.157L139.32 34.443H140.669L143.424 42.176L146.179 34.443H147.699ZM163.049 34.443L158.584 44.874C158.115 45.9633 157.526 46.7613 156.817 47.268C156.108 47.7747 155.234 48.123 154.195 48.313L153.872 47.116C154.771 46.9133 155.449 46.641 155.905 46.299C156.374 45.9697 156.76 45.4567 157.064 44.76L157.444 43.905L153.397 34.443H155.012L158.242 42.328L161.51 34.443H163.049ZM168.585 44.133C167.686 44.133 166.894 43.9303 166.21 43.525C165.526 43.1197 164.994 42.5433 164.614 41.796C164.247 41.0487 164.063 40.1747 164.063 39.174C164.063 38.1733 164.247 37.2993 164.614 36.552C164.994 35.8047 165.526 35.2283 166.21 34.823C166.894 34.4177 167.686 34.215 168.585 34.215C169.485 34.215 170.276 34.4177 170.96 34.823C171.644 35.2283 172.17 35.8047 172.537 36.552C172.917 37.2993 173.107 38.1733 173.107 39.174C173.107 40.1747 172.917 41.0487 172.537 41.796C172.17 42.5433 171.644 43.1197 170.96 43.525C170.276 43.9303 169.485 44.133 168.585 44.133ZM168.585 42.86C169.535 42.86 170.264 42.5497 170.77 41.929C171.277 41.2957 171.53 40.3773 171.53 39.174C171.53 38.0087 171.271 37.1093 170.751 36.476C170.232 35.83 169.51 35.507 168.585 35.507C167.648 35.507 166.92 35.83 166.4 36.476C165.881 37.1093 165.621 38.0087 165.621 39.174C165.621 40.3773 165.875 41.2957 166.381 41.929C166.901 42.5497 167.635 42.86 168.585 42.86ZM183.505 34.443V44H182.004V42.347C181.7 42.9297 181.276 43.373 180.731 43.677C180.187 43.981 179.572 44.133 178.888 44.133C177.761 44.133 176.906 43.8163 176.323 43.183C175.741 42.5497 175.449 41.6123 175.449 40.371V34.443H176.988V40.333C176.988 41.1943 177.166 41.8277 177.52 42.233C177.875 42.6383 178.413 42.841 179.135 42.841C179.984 42.841 180.668 42.5687 181.187 42.024C181.707 41.4667 181.966 40.7383 181.966 39.839V34.443H183.505ZM193.478 35.659V40.884C193.478 41.5933 193.624 42.0937 193.915 42.385C194.207 42.6637 194.618 42.803 195.15 42.803C195.505 42.803 195.847 42.746 196.176 42.632V43.943C195.784 44.0697 195.34 44.133 194.846 44.133C193.934 44.133 193.219 43.8797 192.699 43.373C192.193 42.8537 191.939 42.0937 191.939 41.093V35.659H190.077V34.443H191.939V31.992L193.478 31.441V34.443H196.214V35.659H193.478ZM202.021 44.133C201.122 44.133 200.33 43.9303 199.646 43.525C198.962 43.1197 198.43 42.5433 198.05 41.796C197.683 41.0487 197.499 40.1747 197.499 39.174C197.499 38.1733 197.683 37.2993 198.05 36.552C198.43 35.8047 198.962 35.2283 199.646 34.823C200.33 34.4177 201.122 34.215 202.021 34.215C202.92 34.215 203.712 34.4177 204.396 34.823C205.08 35.2283 205.606 35.8047 205.973 36.552C206.353 37.2993 206.543 38.1733 206.543 39.174C206.543 40.1747 206.353 41.0487 205.973 41.796C205.606 42.5433 205.08 43.1197 204.396 43.525C203.712 43.9303 202.92 44.133 202.021 44.133ZM202.021 42.86C202.971 42.86 203.699 42.5497 204.206 41.929C204.713 41.2957 204.966 40.3773 204.966 39.174C204.966 38.0087 204.706 37.1093 204.187 36.476C203.668 35.83 202.946 35.507 202.021 35.507C201.084 35.507 200.355 35.83 199.836 36.476C199.317 37.1093 199.057 38.0087 199.057 39.174C199.057 40.3773 199.31 41.2957 199.817 41.929C200.336 42.5497 201.071 42.86 202.021 42.86ZM222.313 34.443V44H220.793V42.271C220.514 42.8663 220.09 43.3287 219.52 43.658C218.963 43.9747 218.31 44.133 217.563 44.133C216.714 44.133 215.967 43.9303 215.321 43.525C214.688 43.1197 214.194 42.5497 213.839 41.815C213.497 41.0677 213.326 40.2 213.326 39.212C213.326 38.224 213.503 37.3563 213.858 36.609C214.213 35.849 214.707 35.26 215.34 34.842C215.986 34.424 216.727 34.215 217.563 34.215C218.31 34.215 218.963 34.3797 219.52 34.709C220.077 35.0383 220.502 35.5007 220.793 36.096V34.443H222.313ZM217.867 42.86C218.804 42.86 219.526 42.5433 220.033 41.91C220.54 41.264 220.793 40.352 220.793 39.174C220.793 37.996 220.54 37.0903 220.033 36.457C219.526 35.8237 218.804 35.507 217.867 35.507C216.93 35.507 216.195 35.8363 215.663 36.495C215.144 37.141 214.884 38.0467 214.884 39.212C214.884 40.3773 215.144 41.2767 215.663 41.91C216.182 42.5433 216.917 42.86 217.867 42.86ZM229.298 44.133C228.373 44.133 227.562 43.9303 226.866 43.525C226.182 43.1197 225.65 42.5497 225.27 41.815C224.902 41.0677 224.719 40.2 224.719 39.212C224.719 38.224 224.909 37.3563 225.289 36.609C225.669 35.849 226.207 35.26 226.904 34.842C227.613 34.424 228.436 34.215 229.374 34.215C230.02 34.215 230.64 34.329 231.236 34.557C231.844 34.7723 232.344 35.0763 232.737 35.469L232.224 36.609C231.742 36.229 231.274 35.9503 230.818 35.773C230.374 35.5957 229.918 35.507 229.45 35.507C228.474 35.507 227.708 35.8363 227.151 36.495C226.593 37.141 226.315 38.0467 226.315 39.212C226.315 40.3647 226.587 41.264 227.132 41.91C227.689 42.5433 228.462 42.86 229.45 42.86C229.918 42.86 230.374 42.7713 230.818 42.594C231.274 42.4167 231.742 42.138 232.224 41.758L232.737 42.898C232.331 43.278 231.818 43.582 231.198 43.81C230.59 44.0253 229.956 44.133 229.298 44.133ZM238.705 44.133C237.78 44.133 236.97 43.9303 236.273 43.525C235.589 43.1197 235.057 42.5497 234.677 41.815C234.31 41.0677 234.126 40.2 234.126 39.212C234.126 38.224 234.316 37.3563 234.696 36.609C235.076 35.849 235.614 35.26 236.311 34.842C237.02 34.424 237.844 34.215 238.781 34.215C239.427 34.215 240.048 34.329 240.643 34.557C241.251 34.7723 241.751 35.0763 242.144 35.469L241.631 36.609C241.15 36.229 240.681 35.9503 240.225 35.773C239.782 35.5957 239.326 35.507 238.857 35.507C237.882 35.507 237.115 35.8363 236.558 36.495C236.001 37.141 235.722 38.0467 235.722 39.212C235.722 40.3647 235.994 41.264 236.539 41.91C237.096 42.5433 237.869 42.86 238.857 42.86C239.326 42.86 239.782 42.7713 240.225 42.594C240.681 42.4167 241.15 42.138 241.631 41.758L242.144 42.898C241.739 43.278 241.226 43.582 240.605 43.81C239.997 44.0253 239.364 44.133 238.705 44.133ZM252.102 39.174H245.091C245.104 40.39 245.382 41.3083 245.927 41.929C246.484 42.5497 247.289 42.86 248.34 42.86C249.455 42.86 250.481 42.4863 251.418 41.739L251.931 42.86C251.513 43.2527 250.975 43.563 250.316 43.791C249.67 44.019 249.005 44.133 248.321 44.133C246.826 44.133 245.655 43.696 244.806 42.822C243.957 41.9353 243.533 40.7257 243.533 39.193C243.533 38.2177 243.723 37.3563 244.103 36.609C244.483 35.849 245.015 35.26 245.699 34.842C246.383 34.424 247.162 34.215 248.036 34.215C249.303 34.215 250.297 34.633 251.019 35.469C251.741 36.2923 252.102 37.4323 252.102 38.889V39.174ZM248.055 35.412C247.257 35.412 246.605 35.6527 246.098 36.134C245.604 36.6153 245.287 37.293 245.148 38.167H250.715C250.639 37.2677 250.373 36.5837 249.917 36.115C249.474 35.6463 248.853 35.412 248.055 35.412ZM257.668 44.133C256.059 44.133 254.786 43.7213 253.849 42.898L254.362 41.758C254.881 42.1633 255.407 42.4547 255.939 42.632C256.471 42.8093 257.066 42.898 257.725 42.898C258.447 42.898 258.992 42.7777 259.359 42.537C259.739 42.2837 259.929 41.9227 259.929 41.454C259.929 41.074 259.802 40.77 259.549 40.542C259.296 40.314 258.878 40.1367 258.295 40.01L256.68 39.63C255.882 39.4527 255.261 39.136 254.818 38.68C254.387 38.224 254.172 37.6793 254.172 37.046C254.172 36.21 254.508 35.5323 255.179 35.013C255.85 34.481 256.737 34.215 257.839 34.215C258.51 34.215 259.144 34.3227 259.739 34.538C260.334 34.7533 260.835 35.0637 261.24 35.469L260.727 36.59C259.828 35.8427 258.865 35.469 257.839 35.469C257.155 35.469 256.623 35.602 256.243 35.868C255.876 36.1213 255.692 36.4823 255.692 36.951C255.692 37.3437 255.806 37.654 256.034 37.882C256.275 38.11 256.655 38.2873 257.174 38.414L258.789 38.813C259.676 39.0157 260.334 39.3323 260.765 39.763C261.196 40.181 261.411 40.732 261.411 41.416C261.411 42.2393 261.075 42.898 260.404 43.392C259.733 43.886 258.821 44.133 257.668 44.133ZM267.094 44.133C265.485 44.133 264.212 43.7213 263.275 42.898L263.788 41.758C264.307 42.1633 264.833 42.4547 265.365 42.632C265.897 42.8093 266.492 42.898 267.151 42.898C267.873 42.898 268.418 42.7777 268.785 42.537C269.165 42.2837 269.355 41.9227 269.355 41.454C269.355 41.074 269.228 40.77 268.975 40.542C268.722 40.314 268.304 40.1367 267.721 40.01L266.106 39.63C265.308 39.4527 264.687 39.136 264.244 38.68C263.813 38.224 263.598 37.6793 263.598 37.046C263.598 36.21 263.934 35.5323 264.605 35.013C265.276 34.481 266.163 34.215 267.265 34.215C267.936 34.215 268.57 34.3227 269.165 34.538C269.76 34.7533 270.261 35.0637 270.666 35.469L270.153 36.59C269.254 35.8427 268.291 35.469 267.265 35.469C266.581 35.469 266.049 35.602 265.669 35.868C265.302 36.1213 265.118 36.4823 265.118 36.951C265.118 37.3437 265.232 37.654 265.46 37.882C265.701 38.11 266.081 38.2873 266.6 38.414L268.215 38.813C269.102 39.0157 269.76 39.3323 270.191 39.763C270.622 40.181 270.837 40.732 270.837 41.416C270.837 42.2393 270.501 42.898 269.83 43.392C269.159 43.886 268.247 44.133 267.094 44.133ZM278.244 34.443H279.783V44H278.244V34.443ZM279.973 30.396V32.144H278.092V30.396H279.973ZM287.54 34.215C289.833 34.215 290.979 35.4753 290.979 37.996V44H289.44V38.072C289.44 37.1853 289.263 36.5393 288.908 36.134C288.553 35.716 287.996 35.507 287.236 35.507C286.349 35.507 285.64 35.7793 285.108 36.324C284.576 36.8687 284.31 37.6033 284.31 38.528V44H282.771V37.122C282.771 36.134 282.72 35.241 282.619 34.443H284.082L284.234 36.153C284.525 35.5323 284.962 35.0573 285.545 34.728C286.128 34.386 286.793 34.215 287.54 34.215ZM297.552 31.27C297.046 31.27 296.647 31.4157 296.355 31.707C296.077 31.9857 295.937 32.4733 295.937 33.17V34.443H298.274V35.659H295.937V44H294.398V35.659H292.536V34.443H294.398V32.98C294.398 31.9793 294.645 31.2257 295.139 30.719C295.646 30.1997 296.349 29.94 297.248 29.94C297.692 29.94 298.122 29.997 298.54 30.111V31.422C298.186 31.3207 297.856 31.27 297.552 31.27ZM304.146 44.133C303.247 44.133 302.455 43.9303 301.771 43.525C301.087 43.1197 300.555 42.5433 300.175 41.796C299.808 41.0487 299.624 40.1747 299.624 39.174C299.624 38.1733 299.808 37.2993 300.175 36.552C300.555 35.8047 301.087 35.2283 301.771 34.823C302.455 34.4177 303.247 34.215 304.146 34.215C305.045 34.215 305.837 34.4177 306.521 34.823C307.205 35.2283 307.731 35.8047 308.098 36.552C308.478 37.2993 308.668 38.1733 308.668 39.174C308.668 40.1747 308.478 41.0487 308.098 41.796C307.731 42.5433 307.205 43.1197 306.521 43.525C305.837 43.9303 305.045 44.133 304.146 44.133ZM304.146 42.86C305.096 42.86 305.824 42.5497 306.331 41.929C306.838 41.2957 307.091 40.3773 307.091 39.174C307.091 38.0087 306.831 37.1093 306.312 36.476C305.793 35.83 305.071 35.507 304.146 35.507C303.209 35.507 302.48 35.83 301.961 36.476C301.442 37.1093 301.182 38.0087 301.182 39.174C301.182 40.3773 301.435 41.2957 301.942 41.929C302.461 42.5497 303.196 42.86 304.146 42.86ZM315.513 34.215C315.83 34.215 316.121 34.253 316.387 34.329L316.349 35.735C316.058 35.6337 315.722 35.583 315.342 35.583C314.417 35.583 313.727 35.8743 313.271 36.457C312.828 37.027 312.606 37.7237 312.606 38.547V44H311.067V37.122C311.067 36.134 311.016 35.241 310.915 34.443H312.378L312.53 36.21C312.771 35.564 313.157 35.07 313.689 34.728C314.221 34.386 314.829 34.215 315.513 34.215ZM328.553 34.215C330.668 34.215 331.726 35.4753 331.726 37.996V44H330.187V38.072C330.187 37.1727 330.028 36.5203 329.712 36.115C329.408 35.7097 328.907 35.507 328.211 35.507C327.4 35.507 326.767 35.7793 326.311 36.324C325.855 36.8687 325.627 37.6097 325.627 38.547V44H324.088V38.072C324.088 37.1853 323.929 36.5393 323.613 36.134C323.296 35.716 322.789 35.507 322.093 35.507C321.282 35.507 320.642 35.7793 320.174 36.324C319.718 36.8687 319.49 37.6097 319.49 38.547V44H317.951V37.122C317.951 36.134 317.9 35.241 317.799 34.443H319.262L319.414 36.115C319.68 35.507 320.072 35.0383 320.592 34.709C321.124 34.3797 321.738 34.215 322.435 34.215C323.195 34.215 323.815 34.367 324.297 34.671C324.778 34.975 325.133 35.4437 325.361 36.077C325.652 35.507 326.076 35.0573 326.634 34.728C327.204 34.386 327.843 34.215 328.553 34.215ZM343.067 34.443V44H341.547V42.271C341.268 42.8663 340.844 43.3287 340.274 43.658C339.717 43.9747 339.064 44.133 338.317 44.133C337.468 44.133 336.721 43.9303 336.075 43.525C335.442 43.1197 334.948 42.5497 334.593 41.815C334.251 41.0677 334.08 40.2 334.08 39.212C334.08 38.224 334.257 37.3563 334.612 36.609C334.967 35.849 335.461 35.26 336.094 34.842C336.74 34.424 337.481 34.215 338.317 34.215C339.064 34.215 339.717 34.3797 340.274 34.709C340.831 35.0383 341.256 35.5007 341.547 36.096V34.443H343.067ZM338.621 42.86C339.558 42.86 340.28 42.5433 340.787 41.91C341.294 41.264 341.547 40.352 341.547 39.174C341.547 37.996 341.294 37.0903 340.787 36.457C340.28 35.8237 339.558 35.507 338.621 35.507C337.684 35.507 336.949 35.8363 336.417 36.495C335.898 37.141 335.638 38.0467 335.638 39.212C335.638 40.3773 335.898 41.2767 336.417 41.91C336.936 42.5433 337.671 42.86 338.621 42.86ZM348.095 35.659V40.884C348.095 41.5933 348.24 42.0937 348.532 42.385C348.823 42.6637 349.235 42.803 349.767 42.803C350.121 42.803 350.463 42.746 350.793 42.632V43.943C350.4 44.0697 349.957 44.133 349.463 44.133C348.551 44.133 347.835 43.8797 347.316 43.373C346.809 42.8537 346.556 42.0937 346.556 41.093V35.659H344.694V34.443H346.556V31.992L348.095 31.441V34.443H350.831V35.659H348.095ZM352.685 34.443H354.224V44H352.685V34.443ZM354.414 30.396V32.144H352.533V30.396H354.414ZM361.164 44.133C360.265 44.133 359.473 43.9303 358.789 43.525C358.105 43.1197 357.573 42.5433 357.193 41.796C356.826 41.0487 356.642 40.1747 356.642 39.174C356.642 38.1733 356.826 37.2993 357.193 36.552C357.573 35.8047 358.105 35.2283 358.789 34.823C359.473 34.4177 360.265 34.215 361.164 34.215C362.064 34.215 362.855 34.4177 363.539 34.823C364.223 35.2283 364.749 35.8047 365.116 36.552C365.496 37.2993 365.686 38.1733 365.686 39.174C365.686 40.1747 365.496 41.0487 365.116 41.796C364.749 42.5433 364.223 43.1197 363.539 43.525C362.855 43.9303 362.064 44.133 361.164 44.133ZM361.164 42.86C362.114 42.86 362.843 42.5497 363.349 41.929C363.856 41.2957 364.109 40.3773 364.109 39.174C364.109 38.0087 363.85 37.1093 363.33 36.476C362.811 35.83 362.089 35.507 361.164 35.507C360.227 35.507 359.499 35.83 358.979 36.476C358.46 37.1093 358.2 38.0087 358.2 39.174C358.2 40.3773 358.454 41.2957 358.96 41.929C359.48 42.5497 360.214 42.86 361.164 42.86ZM372.855 34.215C375.147 34.215 376.294 35.4753 376.294 37.996V44H374.755V38.072C374.755 37.1853 374.577 36.5393 374.223 36.134C373.868 35.716 373.311 35.507 372.551 35.507C371.664 35.507 370.955 35.7793 370.423 36.324C369.891 36.8687 369.625 37.6033 369.625 38.528V44H368.086V37.122C368.086 36.134 368.035 35.241 367.934 34.443H369.397L369.549 36.153C369.84 35.5323 370.277 35.0573 370.86 34.728C371.442 34.386 372.107 34.215 372.855 34.215ZM1.482 64.443H3.021V74H1.482V64.443ZM3.211 60.396V62.144H1.33V60.396H3.211ZM10.7783 64.215C13.071 64.215 14.2173 65.4753 14.2173 67.996V74H12.6783V68.072C12.6783 67.1853 12.501 66.5393 12.1463 66.134C11.7917 65.716 11.2343 65.507 10.4743 65.507C9.58768 65.507 8.87834 65.7793 8.34634 66.324C7.81434 66.8687 7.54834 67.6033 7.54834 68.528V74H6.00934V67.122C6.00934 66.134 5.95868 65.241 5.85734 64.443H7.32034L7.47234 66.153C7.76368 65.5323 8.20068 65.0573 8.78334 64.728C9.36601 64.386 10.031 64.215 10.7783 64.215ZM20.3536 74.133C18.7449 74.133 17.4719 73.7213 16.5346 72.898L17.0476 71.758C17.5669 72.1633 18.0926 72.4547 18.6246 72.632C19.1566 72.8093 19.7519 72.898 20.4106 72.898C21.1326 72.898 21.6773 72.7777 22.0446 72.537C22.4246 72.2837 22.6146 71.9227 22.6146 71.454C22.6146 71.074 22.4879 70.77 22.2346 70.542C21.9813 70.314 21.5633 70.1367 20.9806 70.01L19.3656 69.63C18.5676 69.4527 17.9469 69.136 17.5036 68.68C17.0729 68.224 16.8576 67.6793 16.8576 67.046C16.8576 66.21 17.1933 65.5323 17.8646 65.013C18.5359 64.481 19.4226 64.215 20.5246 64.215C21.1959 64.215 21.8293 64.3227 22.4246 64.538C23.0199 64.7533 23.5203 65.0637 23.9256 65.469L23.4126 66.59C22.5133 65.8427 21.5506 65.469 20.5246 65.469C19.8406 65.469 19.3086 65.602 18.9286 65.868C18.5613 66.1213 18.3776 66.4823 18.3776 66.951C18.3776 67.3437 18.4916 67.654 18.7196 67.882C18.9603 68.11 19.3403 68.2873 19.8596 68.414L21.4746 68.813C22.3613 69.0157 23.0199 69.3323 23.4506 69.763C23.8813 70.181 24.0966 70.732 24.0966 71.416C24.0966 72.2393 23.7609 72.898 23.0896 73.392C22.4183 73.886 21.5063 74.133 20.3536 74.133ZM28.5086 65.659V70.884C28.5086 71.5933 28.6543 72.0937 28.9456 72.385C29.2369 72.6637 29.6486 72.803 30.1806 72.803C30.5353 72.803 30.8773 72.746 31.2066 72.632V73.943C30.8139 74.0697 30.3706 74.133 29.8766 74.133C28.9646 74.133 28.2489 73.8797 27.7296 73.373C27.2229 72.8537 26.9696 72.0937 26.9696 71.093V65.659H25.1076V64.443H26.9696V61.992L28.5086 61.441V64.443H31.2446V65.659H28.5086ZM41.5162 64.443V74H39.9962V72.271C39.7175 72.8663 39.2932 73.3287 38.7232 73.658C38.1659 73.9747 37.5135 74.133 36.7662 74.133C35.9175 74.133 35.1702 73.9303 34.5242 73.525C33.8909 73.1197 33.3969 72.5497 33.0422 71.815C32.7002 71.0677 32.5292 70.2 32.5292 69.212C32.5292 68.224 32.7065 67.3563 33.0612 66.609C33.4159 65.849 33.9099 65.26 34.5432 64.842C35.1892 64.424 35.9302 64.215 36.7662 64.215C37.5135 64.215 38.1659 64.3797 38.7232 64.709C39.2805 65.0383 39.7049 65.5007 39.9962 66.096V64.443H41.5162ZM37.0702 72.86C38.0075 72.86 38.7295 72.5433 39.2362 71.91C39.7429 71.264 39.9962 70.352 39.9962 69.174C39.9962 67.996 39.7429 67.0903 39.2362 66.457C38.7295 65.8237 38.0075 65.507 37.0702 65.507C36.1329 65.507 35.3982 65.8363 34.8662 66.495C34.3469 67.141 34.0872 68.0467 34.0872 69.212C34.0872 70.3773 34.3469 71.2767 34.8662 71.91C35.3855 72.5433 36.1202 72.86 37.0702 72.86ZM49.2608 64.215C51.5534 64.215 52.6998 65.4753 52.6998 67.996V74H51.1608V68.072C51.1608 67.1853 50.9834 66.5393 50.6288 66.134C50.2741 65.716 49.7168 65.507 48.9568 65.507C48.0701 65.507 47.3608 65.7793 46.8288 66.324C46.2968 66.8687 46.0308 67.6033 46.0308 68.528V74H44.4918V67.122C44.4918 66.134 44.4411 65.241 44.3398 64.443H45.8028L45.9548 66.153C46.2461 65.5323 46.6831 65.0573 47.2658 64.728C47.8484 64.386 48.5134 64.215 49.2608 64.215ZM57.658 65.659V70.884C57.658 71.5933 57.8037 72.0937 58.095 72.385C58.3864 72.6637 58.798 72.803 59.33 72.803C59.6847 72.803 60.0267 72.746 60.356 72.632V73.943C59.9634 74.0697 59.52 74.133 59.026 74.133C58.114 74.133 57.3984 73.8797 56.879 73.373C56.3724 72.8537 56.119 72.0937 56.119 71.093V65.659H54.257V64.443H56.119V61.992L57.658 61.441V64.443H60.394V65.659H57.658ZM70.6656 64.443V74H69.1456V72.271C68.8669 72.8663 68.4426 73.3287 67.8726 73.658C67.3153 73.9747 66.6629 74.133 65.9156 74.133C65.0669 74.133 64.3196 73.9303 63.6736 73.525C63.0403 73.1197 62.5463 72.5497 62.1916 71.815C61.8496 71.0677 61.6786 70.2 61.6786 69.212C61.6786 68.224 61.8559 67.3563 62.2106 66.609C62.5653 65.849 63.0593 65.26 63.6926 64.842C64.3386 64.424 65.0796 64.215 65.9156 64.215C66.6629 64.215 67.3153 64.3797 67.8726 64.709C68.4299 65.0383 68.8543 65.5007 69.1456 66.096V64.443H70.6656ZM66.2196 72.86C67.1569 72.86 67.8789 72.5433 68.3856 71.91C68.8923 71.264 69.1456 70.352 69.1456 69.174C69.1456 67.996 68.8923 67.0903 68.3856 66.457C67.8789 65.8237 67.1569 65.507 66.2196 65.507C65.2823 65.507 64.5476 65.8363 64.0156 66.495C63.4963 67.141 63.2366 68.0467 63.2366 69.212C63.2366 70.3773 63.4963 71.2767 64.0156 71.91C64.5349 72.5433 65.2696 72.86 66.2196 72.86ZM78.4102 64.215C80.7028 64.215 81.8492 65.4753 81.8492 67.996V74H80.3102V68.072C80.3102 67.1853 80.1328 66.5393 79.7782 66.134C79.4235 65.716 78.8662 65.507 78.1062 65.507C77.2195 65.507 76.5102 65.7793 75.9782 66.324C75.4462 66.8687 75.1802 67.6033 75.1802 68.528V74H73.6412V67.122C73.6412 66.134 73.5905 65.241 73.4892 64.443H74.9522L75.1042 66.153C75.3955 65.5323 75.8325 65.0573 76.4152 64.728C76.9978 64.386 77.6628 64.215 78.4102 64.215ZM92.7544 69.174H85.7434C85.7561 70.39 86.0348 71.3083 86.5794 71.929C87.1368 72.5497 87.9411 72.86 88.9924 72.86C90.1071 72.86 91.1331 72.4863 92.0704 71.739L92.5834 72.86C92.1654 73.2527 91.6271 73.563 90.9684 73.791C90.3224 74.019 89.6574 74.133 88.9734 74.133C87.4788 74.133 86.3071 73.696 85.4584 72.822C84.6098 71.9353 84.1854 70.7257 84.1854 69.193C84.1854 68.2177 84.3754 67.3563 84.7554 66.609C85.1354 65.849 85.6674 65.26 86.3514 64.842C87.0354 64.424 87.8144 64.215 88.6884 64.215C89.9551 64.215 90.9494 64.633 91.6714 65.469C92.3934 66.2923 92.7544 67.4323 92.7544 68.889V69.174ZM88.7074 65.412C87.9094 65.412 87.2571 65.6527 86.7504 66.134C86.2564 66.6153 85.9398 67.293 85.8004 68.167H91.3674C91.2914 67.2677 91.0254 66.5837 90.5694 66.115C90.1261 65.6463 89.5054 65.412 88.7074 65.412ZM99.0424 74.133C98.1431 74.133 97.3514 73.9303 96.6674 73.525C95.9834 73.1197 95.4514 72.5433 95.0714 71.796C94.7041 71.0487 94.5204 70.1747 94.5204 69.174C94.5204 68.1733 94.7041 67.2993 95.0714 66.552C95.4514 65.8047 95.9834 65.2283 96.6674 64.823C97.3514 64.4177 98.1431 64.215 99.0424 64.215C99.9417 64.215 100.733 64.4177 101.417 64.823C102.101 65.2283 102.627 65.8047 102.994 66.552C103.374 67.2993 103.564 68.1733 103.564 69.174C103.564 70.1747 103.374 71.0487 102.994 71.796C102.627 72.5433 102.101 73.1197 101.417 73.525C100.733 73.9303 99.9417 74.133 99.0424 74.133ZM99.0424 72.86C99.9924 72.86 100.721 72.5497 101.227 71.929C101.734 71.2957 101.987 70.3773 101.987 69.174C101.987 68.0087 101.728 67.1093 101.208 66.476C100.689 65.83 99.9671 65.507 99.0424 65.507C98.1051 65.507 97.3767 65.83 96.8574 66.476C96.3381 67.1093 96.0784 68.0087 96.0784 69.174C96.0784 70.3773 96.3317 71.2957 96.8384 71.929C97.3577 72.5497 98.0924 72.86 99.0424 72.86ZM113.962 64.443V74H112.461V72.347C112.157 72.9297 111.733 73.373 111.188 73.677C110.644 73.981 110.029 74.133 109.345 74.133C108.218 74.133 107.363 73.8163 106.78 73.183C106.198 72.5497 105.906 71.6123 105.906 70.371V64.443H107.445V70.333C107.445 71.1943 107.623 71.8277 107.977 72.233C108.332 72.6383 108.87 72.841 109.592 72.841C110.441 72.841 111.125 72.5687 111.644 72.024C112.164 71.4667 112.423 70.7383 112.423 69.839V64.443H113.962ZM120.159 74.133C118.551 74.133 117.278 73.7213 116.34 72.898L116.853 71.758C117.373 72.1633 117.898 72.4547 118.43 72.632C118.962 72.8093 119.558 72.898 120.216 72.898C120.938 72.898 121.483 72.7777 121.85 72.537C122.23 72.2837 122.42 71.9227 122.42 71.454C122.42 71.074 122.294 70.77 122.04 70.542C121.787 70.314 121.369 70.1367 120.786 70.01L119.171 69.63C118.373 69.4527 117.753 69.136 117.309 68.68C116.879 68.224 116.663 67.6793 116.663 67.046C116.663 66.21 116.999 65.5323 117.67 65.013C118.342 64.481 119.228 64.215 120.33 64.215C121.002 64.215 121.635 64.3227 122.23 64.538C122.826 64.7533 123.326 65.0637 123.731 65.469L123.218 66.59C122.319 65.8427 121.356 65.469 120.33 65.469C119.646 65.469 119.114 65.602 118.734 65.868C118.367 66.1213 118.183 66.4823 118.183 66.951C118.183 67.3437 118.297 67.654 118.525 67.882C118.766 68.11 119.146 68.2873 119.665 68.414L121.28 68.813C122.167 69.0157 122.826 69.3323 123.256 69.763C123.687 70.181 123.902 70.732 123.902 71.416C123.902 72.2393 123.567 72.898 122.895 73.392C122.224 73.886 121.312 74.133 120.159 74.133ZM126.355 60.016H127.894V74H126.355V60.016ZM139.28 64.443L134.815 74.874C134.347 75.9633 133.758 76.7613 133.048 77.268C132.339 77.7747 131.465 78.123 130.426 78.313L130.103 77.116C131.003 76.9133 131.68 76.641 132.136 76.299C132.605 75.9697 132.991 75.4567 133.295 74.76L133.675 73.905L129.628 64.443H131.243L134.473 72.328L137.741 64.443H139.28ZM148.59 77.458C147.83 76.014 147.279 74.608 146.937 73.24C146.595 71.8593 146.424 70.428 146.424 68.946C146.424 67.4767 146.595 66.0517 146.937 64.671C147.292 63.2903 147.843 61.8907 148.59 60.472H149.882C149.198 62.0553 148.717 63.5247 148.438 64.88C148.16 66.2353 148.02 67.5907 148.02 68.946C148.02 70.2887 148.16 71.644 148.438 73.012C148.717 74.3673 149.192 75.8493 149.863 77.458H148.59ZM156.73 64.215C159.022 64.215 160.169 65.4753 160.169 67.996V74H158.63V68.072C158.63 67.1853 158.452 66.5393 158.098 66.134C157.743 65.716 157.186 65.507 156.426 65.507C155.539 65.507 154.83 65.7793 154.298 66.324C153.766 66.8687 153.5 67.6033 153.5 68.528V74H151.961V67.122C151.961 66.134 151.91 65.241 151.809 64.443H153.272L153.424 66.153C153.715 65.5323 154.152 65.0573 154.735 64.728C155.317 64.386 155.982 64.215 156.73 64.215ZM167.027 74.133C166.127 74.133 165.336 73.9303 164.652 73.525C163.968 73.1197 163.436 72.5433 163.056 71.796C162.688 71.0487 162.505 70.1747 162.505 69.174C162.505 68.1733 162.688 67.2993 163.056 66.552C163.436 65.8047 163.968 65.2283 164.652 64.823C165.336 64.4177 166.127 64.215 167.027 64.215C167.926 64.215 168.718 64.4177 169.402 64.823C170.086 65.2283 170.611 65.8047 170.979 66.552C171.359 67.2993 171.549 68.1733 171.549 69.174C171.549 70.1747 171.359 71.0487 170.979 71.796C170.611 72.5433 170.086 73.1197 169.402 73.525C168.718 73.9303 167.926 74.133 167.027 74.133ZM167.027 72.86C167.977 72.86 168.705 72.5497 169.212 71.929C169.718 71.2957 169.972 70.3773 169.972 69.174C169.972 68.0087 169.712 67.1093 169.193 66.476C168.673 65.83 167.951 65.507 167.027 65.507C166.089 65.507 165.361 65.83 164.842 66.476C164.322 67.1093 164.063 68.0087 164.063 69.174C164.063 70.3773 164.316 71.2957 164.823 71.929C165.342 72.5497 166.077 72.86 167.027 72.86ZM180.954 65.659V70.884C180.954 71.5933 181.1 72.0937 181.391 72.385C181.682 72.6637 182.094 72.803 182.626 72.803C182.981 72.803 183.323 72.746 183.652 72.632V73.943C183.259 74.0697 182.816 74.133 182.322 74.133C181.41 74.133 180.694 73.8797 180.175 73.373C179.668 72.8537 179.415 72.0937 179.415 71.093V65.659H177.553V64.443H179.415V61.992L180.954 61.441V64.443H183.69V65.659H180.954ZM193.544 69.174H186.533C186.545 70.39 186.824 71.3083 187.369 71.929C187.926 72.5497 188.73 72.86 189.782 72.86C190.896 72.86 191.922 72.4863 192.86 71.739L193.373 72.86C192.955 73.2527 192.416 73.563 191.758 73.791C191.112 74.019 190.447 74.133 189.763 74.133C188.268 74.133 187.096 73.696 186.248 72.822C185.399 71.9353 184.975 70.7257 184.975 69.193C184.975 68.2177 185.165 67.3563 185.545 66.609C185.925 65.849 186.457 65.26 187.141 64.842C187.825 64.424 188.604 64.215 189.478 64.215C190.744 64.215 191.739 64.633 192.461 65.469C193.183 66.2923 193.544 67.4323 193.544 68.889V69.174ZM189.497 65.412C188.699 65.412 188.046 65.6527 187.54 66.134C187.046 66.6153 186.729 67.293 186.59 68.167H192.157C192.081 67.2677 191.815 66.5837 191.359 66.115C190.915 65.6463 190.295 65.412 189.497 65.412ZM204.296 60.016V74H202.776V72.271C202.498 72.8663 202.073 73.3287 201.503 73.658C200.946 73.9747 200.294 74.133 199.546 74.133C198.71 74.133 197.969 73.924 197.323 73.506C196.69 73.088 196.196 72.5053 195.841 71.758C195.487 70.998 195.309 70.124 195.309 69.136C195.309 68.148 195.48 67.2867 195.822 66.552C196.177 65.8047 196.677 65.2283 197.323 64.823C197.969 64.4177 198.71 64.215 199.546 64.215C200.294 64.215 200.946 64.3797 201.503 64.709C202.061 65.0257 202.479 65.4753 202.757 66.058V60.016H204.296ZM199.85 72.86C200.788 72.86 201.51 72.5433 202.016 71.91C202.523 71.264 202.776 70.352 202.776 69.174C202.776 68.0087 202.523 67.1093 202.016 66.476C201.51 65.83 200.788 65.507 199.85 65.507C198.913 65.507 198.178 65.8237 197.646 66.457C197.127 67.0903 196.867 67.9833 196.867 69.136C196.867 70.314 197.127 71.2323 197.646 71.891C198.178 72.537 198.913 72.86 199.85 72.86ZM215.271 69.174H208.26C208.273 70.39 208.551 71.3083 209.096 71.929C209.653 72.5497 210.458 72.86 211.509 72.86C212.624 72.86 213.65 72.4863 214.587 71.739L215.1 72.86C214.682 73.2527 214.144 73.563 213.485 73.791C212.839 74.019 212.174 74.133 211.49 74.133C209.995 74.133 208.824 73.696 207.975 72.822C207.126 71.9353 206.702 70.7257 206.702 69.193C206.702 68.2177 206.892 67.3563 207.272 66.609C207.652 65.849 208.184 65.26 208.868 64.842C209.552 64.424 210.331 64.215 211.205 64.215C212.472 64.215 213.466 64.633 214.188 65.469C214.91 66.2923 215.271 67.4323 215.271 68.889V69.174ZM211.224 65.412C210.426 65.412 209.774 65.6527 209.267 66.134C208.773 66.6153 208.456 67.293 208.317 68.167H213.884C213.808 67.2677 213.542 66.5837 213.086 66.115C212.643 65.6463 212.022 65.412 211.224 65.412ZM221.559 74.133C220.66 74.133 219.868 73.9303 219.184 73.525C218.5 73.1197 217.968 72.5433 217.588 71.796C217.221 71.0487 217.037 70.1747 217.037 69.174C217.037 68.1733 217.221 67.2993 217.588 66.552C217.968 65.8047 218.5 65.2283 219.184 64.823C219.868 64.4177 220.66 64.215 221.559 64.215C222.458 64.215 223.25 64.4177 223.934 64.823C224.618 65.2283 225.144 65.8047 225.511 66.552C225.891 67.2993 226.081 68.1733 226.081 69.174C226.081 70.1747 225.891 71.0487 225.511 71.796C225.144 72.5433 224.618 73.1197 223.934 73.525C223.25 73.9303 222.458 74.133 221.559 74.133ZM221.559 72.86C222.509 72.86 223.237 72.5497 223.744 71.929C224.251 71.2957 224.504 70.3773 224.504 69.174C224.504 68.0087 224.244 67.1093 223.725 66.476C223.206 65.83 222.484 65.507 221.559 65.507C220.622 65.507 219.893 65.83 219.374 66.476C218.855 67.1093 218.595 68.0087 218.595 69.174C218.595 70.3773 218.848 71.2957 219.355 71.929C219.874 72.5497 220.609 72.86 221.559 72.86ZM236.479 64.443V74H234.978V72.347C234.674 72.9297 234.25 73.373 233.705 73.677C233.16 73.981 232.546 74.133 231.862 74.133C230.735 74.133 229.88 73.8163 229.297 73.183C228.714 72.5497 228.423 71.6123 228.423 70.371V64.443H229.962V70.333C229.962 71.1943 230.139 71.8277 230.494 72.233C230.849 72.6383 231.387 72.841 232.109 72.841C232.958 72.841 233.642 72.5687 234.161 72.024C234.68 71.4667 234.94 70.7383 234.94 69.839V64.443H236.479ZM242.676 74.133C241.067 74.133 239.794 73.7213 238.857 72.898L239.37 71.758C239.889 72.1633 240.415 72.4547 240.947 72.632C241.479 72.8093 242.074 72.898 242.733 72.898C243.455 72.898 244 72.7777 244.367 72.537C244.747 72.2837 244.937 71.9227 244.937 71.454C244.937 71.074 244.81 70.77 244.557 70.542C244.304 70.314 243.886 70.1367 243.303 70.01L241.688 69.63C240.89 69.4527 240.269 69.136 239.826 68.68C239.395 68.224 239.18 67.6793 239.18 67.046C239.18 66.21 239.516 65.5323 240.187 65.013C240.858 64.481 241.745 64.215 242.847 64.215C243.518 64.215 244.152 64.3227 244.747 64.538C245.342 64.7533 245.843 65.0637 246.248 65.469L245.735 66.59C244.836 65.8427 243.873 65.469 242.847 65.469C242.163 65.469 241.631 65.602 241.251 65.868C240.884 66.1213 240.7 66.4823 240.7 66.951C240.7 67.3437 240.814 67.654 241.042 67.882C241.283 68.11 241.663 68.2873 242.182 68.414L243.797 68.813C244.684 69.0157 245.342 69.3323 245.773 69.763C246.204 70.181 246.419 70.732 246.419 71.416C246.419 72.2393 246.083 72.898 245.412 73.392C244.741 73.886 243.829 74.133 242.676 74.133ZM257.493 61.27C256.986 61.27 256.587 61.4157 256.296 61.707C256.017 61.9857 255.878 62.4733 255.878 63.17V64.443H258.215V65.659H255.878V74H254.339V65.659H252.477V64.443H254.339V62.98C254.339 61.9793 254.586 61.2257 255.08 60.719C255.586 60.1997 256.289 59.94 257.189 59.94C257.632 59.94 258.063 59.997 258.481 60.111V61.422C258.126 61.3207 257.797 61.27 257.493 61.27ZM264.086 74.133C263.187 74.133 262.395 73.9303 261.711 73.525C261.027 73.1197 260.495 72.5433 260.115 71.796C259.748 71.0487 259.564 70.1747 259.564 69.174C259.564 68.1733 259.748 67.2993 260.115 66.552C260.495 65.8047 261.027 65.2283 261.711 64.823C262.395 64.4177 263.187 64.215 264.086 64.215C264.986 64.215 265.777 64.4177 266.461 64.823C267.145 65.2283 267.671 65.8047 268.038 66.552C268.418 67.2993 268.608 68.1733 268.608 69.174C268.608 70.1747 268.418 71.0487 268.038 71.796C267.671 72.5433 267.145 73.1197 266.461 73.525C265.777 73.9303 264.986 74.133 264.086 74.133ZM264.086 72.86C265.036 72.86 265.765 72.5497 266.271 71.929C266.778 71.2957 267.031 70.3773 267.031 69.174C267.031 68.0087 266.772 67.1093 266.252 66.476C265.733 65.83 265.011 65.507 264.086 65.507C263.149 65.507 262.421 65.83 261.901 66.476C261.382 67.1093 261.122 68.0087 261.122 69.174C261.122 70.3773 261.376 71.2957 261.882 71.929C262.402 72.5497 263.136 72.86 264.086 72.86ZM275.453 64.215C275.77 64.215 276.061 64.253 276.327 64.329L276.289 65.735C275.998 65.6337 275.662 65.583 275.282 65.583C274.358 65.583 273.667 65.8743 273.211 66.457C272.768 67.027 272.546 67.7237 272.546 68.547V74H271.007V67.122C271.007 66.134 270.957 65.241 270.855 64.443H272.318L272.47 66.21C272.711 65.564 273.097 65.07 273.629 64.728C274.161 64.386 274.769 64.215 275.453 64.215ZM288.493 64.215C290.609 64.215 291.666 65.4753 291.666 67.996V74H290.127V68.072C290.127 67.1727 289.969 66.5203 289.652 66.115C289.348 65.7097 288.848 65.507 288.151 65.507C287.341 65.507 286.707 65.7793 286.251 66.324C285.795 66.8687 285.567 67.6097 285.567 68.547V74H284.028V68.072C284.028 67.1853 283.87 66.5393 283.553 66.134C283.237 65.716 282.73 65.507 282.033 65.507C281.223 65.507 280.583 65.7793 280.114 66.324C279.658 66.8687 279.43 67.6097 279.43 68.547V74H277.891V67.122C277.891 66.134 277.841 65.241 277.739 64.443H279.202L279.354 66.115C279.62 65.507 280.013 65.0383 280.532 64.709C281.064 64.3797 281.679 64.215 282.375 64.215C283.135 64.215 283.756 64.367 284.237 64.671C284.719 64.975 285.073 65.4437 285.301 66.077C285.593 65.507 286.017 65.0573 286.574 64.728C287.144 64.386 287.784 64.215 288.493 64.215ZM296.281 72.043V73.43C296.281 73.962 296.193 74.4497 296.015 74.893C295.838 75.3363 295.54 75.767 295.122 76.185L294.4 75.634C294.894 75.064 295.173 74.5193 295.236 74H294.324V72.043H296.281ZM303.942 60.016H305.481V74H303.942V60.016ZM312.421 74.133C311.522 74.133 310.73 73.9303 310.046 73.525C309.362 73.1197 308.83 72.5433 308.45 71.796C308.083 71.0487 307.899 70.1747 307.899 69.174C307.899 68.1733 308.083 67.2993 308.45 66.552C308.83 65.8047 309.362 65.2283 310.046 64.823C310.73 64.4177 311.522 64.215 312.421 64.215C313.321 64.215 314.112 64.4177 314.796 64.823C315.48 65.2283 316.006 65.8047 316.373 66.552C316.753 67.2993 316.943 68.1733 316.943 69.174C316.943 70.1747 316.753 71.0487 316.373 71.796C316.006 72.5433 315.48 73.1197 314.796 73.525C314.112 73.9303 313.321 74.133 312.421 74.133ZM312.421 72.86C313.371 72.86 314.1 72.5497 314.606 71.929C315.113 71.2957 315.366 70.3773 315.366 69.174C315.366 68.0087 315.107 67.1093 314.587 66.476C314.068 65.83 313.346 65.507 312.421 65.507C311.484 65.507 310.756 65.83 310.236 66.476C309.717 67.1093 309.457 68.0087 309.457 69.174C309.457 70.3773 309.711 71.2957 310.217 71.929C310.737 72.5497 311.471 72.86 312.421 72.86ZM324.111 64.215C326.404 64.215 327.55 65.4753 327.55 67.996V74H326.011V68.072C326.011 67.1853 325.834 66.5393 325.479 66.134C325.125 65.716 324.567 65.507 323.807 65.507C322.921 65.507 322.211 65.7793 321.679 66.324C321.147 66.8687 320.881 67.6033 320.881 68.528V74H319.342V67.122C319.342 66.134 319.292 65.241 319.19 64.443H320.653L320.805 66.153C321.097 65.5323 321.534 65.0573 322.116 64.728C322.699 64.386 323.364 64.215 324.111 64.215ZM338.969 64.443V73.924C338.969 75.3427 338.601 76.413 337.867 77.135C337.145 77.8697 336.074 78.237 334.656 78.237C333.199 78.237 331.945 77.9077 330.894 77.249L331.16 75.995C331.768 76.337 332.338 76.584 332.87 76.736C333.414 76.888 334.01 76.964 334.656 76.964C335.58 76.964 336.277 76.717 336.746 76.223C337.214 75.7417 337.449 75.0197 337.449 74.057V71.796C337.157 72.404 336.727 72.879 336.157 73.221C335.599 73.5503 334.934 73.715 334.162 73.715C333.326 73.715 332.578 73.5187 331.92 73.126C331.274 72.7333 330.773 72.176 330.419 71.454C330.064 70.732 329.887 69.9023 329.887 68.965C329.887 68.0277 330.064 67.198 330.419 66.476C330.773 65.754 331.274 65.1967 331.92 64.804C332.578 64.4113 333.326 64.215 334.162 64.215C334.922 64.215 335.58 64.3797 336.138 64.709C336.708 65.0383 337.138 65.5007 337.43 66.096V64.443H338.969ZM334.466 72.423C335.39 72.423 336.112 72.119 336.632 71.511C337.164 70.8903 337.43 70.0417 337.43 68.965C337.43 67.8883 337.164 67.046 336.632 66.438C336.112 65.8173 335.39 65.507 334.466 65.507C333.528 65.507 332.787 65.8173 332.243 66.438C331.711 67.046 331.445 67.8883 331.445 68.965C331.445 70.0417 331.711 70.8903 332.243 71.511C332.787 72.119 333.528 72.423 334.466 72.423ZM350.887 74.133C349.962 74.133 349.151 73.9303 348.455 73.525C347.771 73.1197 347.239 72.5497 346.859 71.815C346.491 71.0677 346.308 70.2 346.308 69.212C346.308 68.224 346.498 67.3563 346.878 66.609C347.258 65.849 347.796 65.26 348.493 64.842C349.202 64.424 350.025 64.215 350.963 64.215C351.609 64.215 352.229 64.329 352.825 64.557C353.433 64.7723 353.933 65.0763 354.326 65.469L353.813 66.609C353.331 66.229 352.863 65.9503 352.407 65.773C351.963 65.5957 351.507 65.507 351.039 65.507C350.063 65.507 349.297 65.8363 348.74 66.495C348.182 67.141 347.904 68.0467 347.904 69.212C347.904 70.3647 348.176 71.264 348.721 71.91C349.278 72.5433 350.051 72.86 351.039 72.86C351.507 72.86 351.963 72.7713 352.407 72.594C352.863 72.4167 353.331 72.138 353.813 71.758L354.326 72.898C353.92 73.278 353.407 73.582 352.787 73.81C352.179 74.0253 351.545 74.133 350.887 74.133ZM364.702 64.443V74H363.182V72.271C362.903 72.8663 362.479 73.3287 361.909 73.658C361.351 73.9747 360.699 74.133 359.952 74.133C359.103 74.133 358.356 73.9303 357.71 73.525C357.076 73.1197 356.582 72.5497 356.228 71.815C355.886 71.0677 355.715 70.2 355.715 69.212C355.715 68.224 355.892 67.3563 356.247 66.609C356.601 65.849 357.095 65.26 357.729 64.842C358.375 64.424 359.116 64.215 359.952 64.215C360.699 64.215 361.351 64.3797 361.909 64.709C362.466 65.0383 362.89 65.5007 363.182 66.096V64.443H364.702ZM360.256 72.86C361.193 72.86 361.915 72.5433 362.422 71.91C362.928 71.264 363.182 70.352 363.182 69.174C363.182 67.996 362.928 67.0903 362.422 66.457C361.915 65.8237 361.193 65.507 360.256 65.507C359.318 65.507 358.584 65.8363 358.052 66.495C357.532 67.141 357.273 68.0467 357.273 69.212C357.273 70.3773 357.532 71.2767 358.052 71.91C358.571 72.5433 359.306 72.86 360.256 72.86ZM367.677 60.016H369.216V74H367.677V60.016ZM372.205 60.016H373.744V74H372.205V60.016ZM379.962 74.133C378.353 74.133 377.08 73.7213 376.143 72.898L376.656 71.758C377.175 72.1633 377.701 72.4547 378.233 72.632C378.765 72.8093 379.36 72.898 380.019 72.898C380.741 72.898 381.286 72.7777 381.653 72.537C382.033 72.2837 382.223 71.9227 382.223 71.454C382.223 71.074 382.096 70.77 381.843 70.542C381.59 70.314 381.172 70.1367 380.589 70.01L378.974 69.63C378.176 69.4527 377.555 69.136 377.112 68.68C376.681 68.224 376.466 67.6793 376.466 67.046C376.466 66.21 376.802 65.5323 377.473 65.013C378.144 64.481 379.031 64.215 380.133 64.215C380.804 64.215 381.438 64.3227 382.033 64.538C382.628 64.7533 383.129 65.0637 383.534 65.469L383.021 66.59C382.122 65.8427 381.159 65.469 380.133 65.469C379.449 65.469 378.917 65.602 378.537 65.868C378.17 66.1213 377.986 66.4823 377.986 66.951C377.986 67.3437 378.1 67.654 378.328 67.882C378.569 68.11 378.949 68.2873 379.468 68.414L381.083 68.813C381.97 69.0157 382.628 69.3323 383.059 69.763C383.49 70.181 383.705 70.732 383.705 71.416C383.705 72.2393 383.369 72.898 382.698 73.392C382.027 73.886 381.115 74.133 379.962 74.133ZM387.756 72.043V73.43C387.756 73.962 387.667 74.4497 387.49 74.893C387.313 75.3363 387.015 75.767 386.597 76.185L385.875 75.634C386.369 75.064 386.648 74.5193 386.711 74H385.799V72.043H387.756ZM5.434 104.133C4.53467 104.133 3.743 103.93 3.059 103.525C2.375 103.12 1.843 102.543 1.463 101.796C1.09567 101.049 0.912 100.175 0.912 99.174C0.912 98.1733 1.09567 97.2993 1.463 96.552C1.843 95.8047 2.375 95.2283 3.059 94.823C3.743 94.4177 4.53467 94.215 5.434 94.215C6.33333 94.215 7.125 94.4177 7.809 94.823C8.493 95.2283 9.01867 95.8047 9.386 96.552C9.766 97.2993 9.956 98.1733 9.956 99.174C9.956 100.175 9.766 101.049 9.386 101.796C9.01867 102.543 8.493 103.12 7.809 103.525C7.125 103.93 6.33333 104.133 5.434 104.133ZM5.434 102.86C6.384 102.86 7.11233 102.55 7.619 101.929C8.12567 101.296 8.379 100.377 8.379 99.174C8.379 98.0087 8.11933 97.1093 7.6 96.476C7.08067 95.83 6.35867 95.507 5.434 95.507C4.49667 95.507 3.76833 95.83 3.249 96.476C2.72967 97.1093 2.47 98.0087 2.47 99.174C2.47 100.377 2.72333 101.296 3.23 101.929C3.74933 102.55 4.484 102.86 5.434 102.86ZM16.801 94.215C17.1177 94.215 17.409 94.253 17.675 94.329L17.637 95.735C17.3457 95.6337 17.01 95.583 16.63 95.583C15.7054 95.583 15.015 95.8743 14.559 96.457C14.1157 97.027 13.894 97.7237 13.894 98.547V104H12.355V97.122C12.355 96.134 12.3044 95.241 12.203 94.443H13.666L13.818 96.21C14.0587 95.564 14.445 95.07 14.977 94.728C15.509 94.386 16.117 94.215 16.801 94.215ZM32.6099 94.443V104H31.0899V102.271C30.8113 102.866 30.3869 103.329 29.8169 103.658C29.2596 103.975 28.6073 104.133 27.8599 104.133C27.0113 104.133 26.2639 103.93 25.6179 103.525C24.9846 103.12 24.4906 102.55 24.1359 101.815C23.7939 101.068 23.6229 100.2 23.6229 99.212C23.6229 98.224 23.8003 97.3563 24.1549 96.609C24.5096 95.849 25.0036 95.26 25.6369 94.842C26.2829 94.424 27.0239 94.215 27.8599 94.215C28.6073 94.215 29.2596 94.3797 29.8169 94.709C30.3743 95.0383 30.7986 95.5007 31.0899 96.096V94.443H32.6099ZM28.1639 102.86C29.1013 102.86 29.8233 102.543 30.3299 101.91C30.8366 101.264 31.0899 100.352 31.0899 99.174C31.0899 97.996 30.8366 97.0903 30.3299 96.457C29.8233 95.8237 29.1013 95.507 28.1639 95.507C27.2266 95.507 26.4919 95.8363 25.9599 96.495C25.4406 97.141 25.1809 98.0467 25.1809 99.212C25.1809 100.377 25.4406 101.277 25.9599 101.91C26.4793 102.543 27.2139 102.86 28.1639 102.86ZM44.0025 90.016V104H42.4825V102.271C42.2038 102.866 41.7795 103.329 41.2095 103.658C40.6522 103.975 39.9998 104.133 39.2525 104.133C38.4165 104.133 37.6755 103.924 37.0295 103.506C36.3962 103.088 35.9022 102.505 35.5475 101.758C35.1928 100.998 35.0155 100.124 35.0155 99.136C35.0155 98.148 35.1865 97.2867 35.5285 96.552C35.8832 95.8047 36.3835 95.2283 37.0295 94.823C37.6755 94.4177 38.4165 94.215 39.2525 94.215C39.9998 94.215 40.6522 94.3797 41.2095 94.709C41.7668 95.0257 42.1848 95.4753 42.4635 96.058V90.016H44.0025ZM39.5565 102.86C40.4938 102.86 41.2158 102.543 41.7225 101.91C42.2292 101.264 42.4825 100.352 42.4825 99.174C42.4825 98.0087 42.2292 97.1093 41.7225 96.476C41.2158 95.83 40.4938 95.507 39.5565 95.507C38.6192 95.507 37.8845 95.8237 37.3525 96.457C36.8332 97.0903 36.5735 97.9833 36.5735 99.136C36.5735 100.314 36.8332 101.232 37.3525 101.891C37.8845 102.537 38.6192 102.86 39.5565 102.86ZM57.5801 94.215C59.6954 94.215 60.7531 95.4753 60.7531 97.996V104H59.2141V98.072C59.2141 97.1727 59.0558 96.5203 58.7391 96.115C58.4351 95.7097 57.9348 95.507 57.2381 95.507C56.4274 95.507 55.7941 95.7793 55.3381 96.324C54.8821 96.8687 54.6541 97.6097 54.6541 98.547V104H53.1151V98.072C53.1151 97.1853 52.9568 96.5393 52.6401 96.134C52.3234 95.716 51.8168 95.507 51.1201 95.507C50.3094 95.507 49.6698 95.7793 49.2011 96.324C48.7451 96.8687 48.5171 97.6097 48.5171 98.547V104H46.9781V97.122C46.9781 96.134 46.9274 95.241 46.8261 94.443H48.2891L48.4411 96.115C48.7071 95.507 49.0998 95.0383 49.6191 94.709C50.1511 94.3797 50.7654 94.215 51.4621 94.215C52.2221 94.215 52.8428 94.367 53.3241 94.671C53.8054 94.975 54.1601 95.4437 54.3881 96.077C54.6794 95.507 55.1038 95.0573 55.6611 94.728C56.2311 94.386 56.8708 94.215 57.5801 94.215ZM63.6773 94.443H65.2163V104H63.6773V94.443ZM65.4063 90.396V92.144H63.5253V90.396H65.4063ZM72.9737 94.215C75.2663 94.215 76.4127 95.4753 76.4127 97.996V104H74.8737V98.072C74.8737 97.1853 74.6963 96.5393 74.3417 96.134C73.987 95.716 73.4297 95.507 72.6697 95.507C71.783 95.507 71.0737 95.7793 70.5417 96.324C70.0097 96.8687 69.7437 97.6033 69.7437 98.528V104H68.2047V97.122C68.2047 96.134 68.154 95.241 68.0527 94.443H69.5157L69.6677 96.153C69.959 95.5323 70.396 95.0573 70.9787 94.728C71.5613 94.386 72.2263 94.215 72.9737 94.215ZM79.3189 94.443H80.8579V104H79.3189V94.443ZM81.0479 90.396V92.144H79.1669V90.396H81.0479ZM87.0763 104.133C85.4676 104.133 84.1946 103.721 83.2573 102.898L83.7703 101.758C84.2896 102.163 84.8153 102.455 85.3473 102.632C85.8793 102.809 86.4746 102.898 87.1333 102.898C87.8553 102.898 88.3999 102.778 88.7673 102.537C89.1473 102.284 89.3373 101.923 89.3373 101.454C89.3373 101.074 89.2106 100.77 88.9573 100.542C88.7039 100.314 88.2859 100.137 87.7033 100.01L86.0883 99.63C85.2903 99.4527 84.6696 99.136 84.2263 98.68C83.7956 98.224 83.5803 97.6793 83.5803 97.046C83.5803 96.21 83.9159 95.5323 84.5873 95.013C85.2586 94.481 86.1453 94.215 87.2473 94.215C87.9186 94.215 88.5519 94.3227 89.1473 94.538C89.7426 94.7533 90.2429 95.0637 90.6483 95.469L90.1353 96.59C89.2359 95.8427 88.2733 95.469 87.2473 95.469C86.5633 95.469 86.0313 95.602 85.6513 95.868C85.2839 96.1213 85.1003 96.4823 85.1003 96.951C85.1003 97.3437 85.2143 97.654 85.4423 97.882C85.6829 98.11 86.0629 98.2873 86.5823 98.414L88.1973 98.813C89.0839 99.0157 89.7426 99.3323 90.1733 99.763C90.6039 100.181 90.8193 100.732 90.8193 101.416C90.8193 102.239 90.4836 102.898 89.8123 103.392C89.1409 103.886 88.2289 104.133 87.0763 104.133ZM95.2313 95.659V100.884C95.2313 101.593 95.3769 102.094 95.6683 102.385C95.9596 102.664 96.3713 102.803 96.9033 102.803C97.2579 102.803 97.5999 102.746 97.9293 102.632V103.943C97.5366 104.07 97.0933 104.133 96.5993 104.133C95.6873 104.133 94.9716 103.88 94.4523 103.373C93.9456 102.854 93.6923 102.094 93.6923 101.093V95.659H91.8303V94.443H93.6923V91.992L95.2313 91.441V94.443H97.9673V95.659H95.2313ZM104.268 94.215C104.585 94.215 104.876 94.253 105.142 94.329L105.104 95.735C104.813 95.6337 104.477 95.583 104.097 95.583C103.172 95.583 102.482 95.8743 102.026 96.457C101.583 97.027 101.361 97.7237 101.361 98.547V104H99.8218V97.122C99.8218 96.134 99.7712 95.241 99.6698 94.443H101.133L101.285 96.21C101.526 95.564 101.912 95.07 102.444 94.728C102.976 94.386 103.584 94.215 104.268 94.215ZM114.937 94.443V104H113.417V102.271C113.138 102.866 112.714 103.329 112.144 103.658C111.587 103.975 110.934 104.133 110.187 104.133C109.338 104.133 108.591 103.93 107.945 103.525C107.312 103.12 106.818 102.55 106.463 101.815C106.121 101.068 105.95 100.2 105.95 99.212C105.95 98.224 106.127 97.3563 106.482 96.609C106.837 95.849 107.331 95.26 107.964 94.842C108.61 94.424 109.351 94.215 110.187 94.215C110.934 94.215 111.587 94.3797 112.144 94.709C112.701 95.0383 113.126 95.5007 113.417 96.096V94.443H114.937ZM110.491 102.86C111.428 102.86 112.15 102.543 112.657 101.91C113.164 101.264 113.417 100.352 113.417 99.174C113.417 97.996 113.164 97.0903 112.657 96.457C112.15 95.8237 111.428 95.507 110.491 95.507C109.554 95.507 108.819 95.8363 108.287 96.495C107.768 97.141 107.508 98.0467 107.508 99.212C107.508 100.377 107.768 101.277 108.287 101.91C108.806 102.543 109.541 102.86 110.491 102.86ZM119.965 95.659V100.884C119.965 101.593 120.11 102.094 120.402 102.385C120.693 102.664 121.105 102.803 121.637 102.803C121.991 102.803 122.333 102.746 122.663 102.632V103.943C122.27 104.07 121.827 104.133 121.333 104.133C120.421 104.133 119.705 103.88 119.186 103.373C118.679 102.854 118.426 102.094 118.426 101.093V95.659H116.564V94.443H118.426V91.992L119.965 91.441V94.443H122.701V95.659H119.965ZM124.555 94.443H126.094V104H124.555V94.443ZM126.284 90.396V92.144H124.403V90.396H126.284ZM137.481 94.462L133.358 104H131.895L127.829 94.462H129.444L132.674 102.328L135.942 94.462H137.481ZM147.064 99.174H140.053C140.066 100.39 140.344 101.308 140.889 101.929C141.446 102.55 142.251 102.86 143.302 102.86C144.417 102.86 145.443 102.486 146.38 101.739L146.893 102.86C146.475 103.253 145.937 103.563 145.278 103.791C144.632 104.019 143.967 104.133 143.283 104.133C141.788 104.133 140.617 103.696 139.768 102.822C138.919 101.935 138.495 100.726 138.495 99.193C138.495 98.2177 138.685 97.3563 139.065 96.609C139.445 95.849 139.977 95.26 140.661 94.842C141.345 94.424 142.124 94.215 142.998 94.215C144.265 94.215 145.259 94.633 145.981 95.469C146.703 96.2923 147.064 97.4323 147.064 98.889V99.174ZM143.017 95.412C142.219 95.412 141.567 95.6527 141.06 96.134C140.566 96.6153 140.249 97.293 140.11 98.167H145.677C145.601 97.2677 145.335 96.5837 144.879 96.115C144.436 95.6463 143.815 95.412 143.017 95.412ZM159.123 94.215C161.416 94.215 162.562 95.4753 162.562 97.996V104H161.023V98.072C161.023 97.1853 160.846 96.5393 160.491 96.134C160.136 95.716 159.579 95.507 158.819 95.507C157.932 95.507 157.223 95.7793 156.691 96.324C156.159 96.8687 155.893 97.6033 155.893 98.528V104H154.354V90.016H155.893V96.001C156.197 95.4183 156.628 94.975 157.185 94.671C157.755 94.367 158.401 94.215 159.123 94.215ZM173.885 94.443V104H172.365V102.271C172.087 102.866 171.662 103.329 171.092 103.658C170.535 103.975 169.883 104.133 169.135 104.133C168.287 104.133 167.539 103.93 166.893 103.525C166.26 103.12 165.766 102.55 165.411 101.815C165.069 101.068 164.898 100.2 164.898 99.212C164.898 98.224 165.076 97.3563 165.43 96.609C165.785 95.849 166.279 95.26 166.912 94.842C167.558 94.424 168.299 94.215 169.135 94.215C169.883 94.215 170.535 94.3797 171.092 94.709C171.65 95.0383 172.074 95.5007 172.365 96.096V94.443H173.885ZM169.439 102.86C170.377 102.86 171.099 102.543 171.605 101.91C172.112 101.264 172.365 100.352 172.365 99.174C172.365 97.996 172.112 97.0903 171.605 96.457C171.099 95.8237 170.377 95.507 169.439 95.507C168.502 95.507 167.767 95.8363 167.235 96.495C166.716 97.141 166.456 98.0467 166.456 99.212C166.456 100.377 166.716 101.277 167.235 101.91C167.755 102.543 168.489 102.86 169.439 102.86ZM180.091 104.133C178.482 104.133 177.209 103.721 176.272 102.898L176.785 101.758C177.304 102.163 177.83 102.455 178.362 102.632C178.894 102.809 179.489 102.898 180.148 102.898C180.87 102.898 181.415 102.778 181.782 102.537C182.162 102.284 182.352 101.923 182.352 101.454C182.352 101.074 182.225 100.77 181.972 100.542C181.719 100.314 181.301 100.137 180.718 100.01L179.103 99.63C178.305 99.4527 177.684 99.136 177.241 98.68C176.81 98.224 176.595 97.6793 176.595 97.046C176.595 96.21 176.931 95.5323 177.602 95.013C178.273 94.481 179.16 94.215 180.262 94.215C180.933 94.215 181.567 94.3227 182.162 94.538C182.757 94.7533 183.258 95.0637 183.663 95.469L183.15 96.59C182.251 95.8427 181.288 95.469 180.262 95.469C179.578 95.469 179.046 95.602 178.666 95.868C178.299 96.1213 178.115 96.4823 178.115 96.951C178.115 97.3437 178.229 97.654 178.457 97.882C178.698 98.11 179.078 98.2873 179.597 98.414L181.212 98.813C182.099 99.0157 182.757 99.3323 183.188 99.763C183.619 100.181 183.834 100.732 183.834 101.416C183.834 102.239 183.498 102.898 182.827 103.392C182.156 103.886 181.244 104.133 180.091 104.133ZM189.517 104.133C187.908 104.133 186.635 103.721 185.698 102.898L186.211 101.758C186.73 102.163 187.256 102.455 187.788 102.632C188.32 102.809 188.915 102.898 189.574 102.898C190.296 102.898 190.84 102.778 191.208 102.537C191.588 102.284 191.778 101.923 191.778 101.454C191.778 101.074 191.651 100.77 191.398 100.542C191.144 100.314 190.726 100.137 190.144 100.01L188.529 99.63C187.731 99.4527 187.11 99.136 186.667 98.68C186.236 98.224 186.021 97.6793 186.021 97.046C186.021 96.21 186.356 95.5323 187.028 95.013C187.699 94.481 188.586 94.215 189.688 94.215C190.359 94.215 190.992 94.3227 191.588 94.538C192.183 94.7533 192.683 95.0637 193.089 95.469L192.576 96.59C191.676 95.8427 190.714 95.469 189.688 95.469C189.004 95.469 188.472 95.602 188.092 95.868C187.724 96.1213 187.541 96.4823 187.541 96.951C187.541 97.3437 187.655 97.654 187.883 97.882C188.123 98.11 188.503 98.2873 189.023 98.414L190.638 98.813C191.524 99.0157 192.183 99.3323 192.614 99.763C193.044 100.181 193.26 100.732 193.26 101.416C193.26 102.239 192.924 102.898 192.253 103.392C191.581 103.886 190.669 104.133 189.517 104.133ZM195.712 90.016H197.251V104H195.712V90.016ZM208.239 99.174H201.228C201.24 100.39 201.519 101.308 202.064 101.929C202.621 102.55 203.425 102.86 204.477 102.86C205.591 102.86 206.617 102.486 207.555 101.739L208.068 102.86C207.65 103.253 207.111 103.563 206.453 103.791C205.807 104.019 205.142 104.133 204.458 104.133C202.963 104.133 201.791 103.696 200.943 102.822C200.094 101.935 199.67 100.726 199.67 99.193C199.67 98.2177 199.86 97.3563 200.24 96.609C200.62 95.849 201.152 95.26 201.836 94.842C202.52 94.424 203.299 94.215 204.173 94.215C205.439 94.215 206.434 94.633 207.156 95.469C207.878 96.2923 208.239 97.4323 208.239 98.889V99.174ZM204.192 95.412C203.394 95.412 202.741 95.6527 202.235 96.134C201.741 96.6153 201.424 97.293 201.285 98.167H206.852C206.776 97.2677 206.51 96.5837 206.054 96.115C205.61 95.6463 204.99 95.412 204.192 95.412ZM209.571 107.458C210.242 105.849 210.717 104.367 210.996 103.012C211.275 101.644 211.414 100.289 211.414 98.946C211.414 97.5907 211.275 96.2353 210.996 94.88C210.717 93.5247 210.242 92.0553 209.571 90.472H210.863C211.61 91.8907 212.155 93.2903 212.497 94.671C212.839 96.0517 213.01 97.4767 213.01 98.946C213.01 100.428 212.839 101.859 212.497 103.24C212.155 104.608 211.604 106.014 210.844 107.458H209.571ZM229.846 94.443V104H228.326V102.271C228.048 102.866 227.623 103.329 227.053 103.658C226.496 103.975 225.844 104.133 225.096 104.133C224.248 104.133 223.5 103.93 222.854 103.525C222.221 103.12 221.727 102.55 221.372 101.815C221.03 101.068 220.859 100.2 220.859 99.212C220.859 98.224 221.037 97.3563 221.391 96.609C221.746 95.849 222.24 95.26 222.873 94.842C223.519 94.424 224.26 94.215 225.096 94.215C225.844 94.215 226.496 94.3797 227.053 94.709C227.611 95.0383 228.035 95.5007 228.326 96.096V94.443H229.846ZM225.4 102.86C226.338 102.86 227.06 102.543 227.566 101.91C228.073 101.264 228.326 100.352 228.326 99.174C228.326 97.996 228.073 97.0903 227.566 96.457C227.06 95.8237 226.338 95.507 225.4 95.507C224.463 95.507 223.728 95.8363 223.196 96.495C222.677 97.141 222.417 98.0467 222.417 99.212C222.417 100.377 222.677 101.277 223.196 101.91C223.716 102.543 224.45 102.86 225.4 102.86ZM237.591 94.215C239.884 94.215 241.03 95.4753 241.03 97.996V104H239.491V98.072C239.491 97.1853 239.314 96.5393 238.959 96.134C238.604 95.716 238.047 95.507 237.287 95.507C236.4 95.507 235.691 95.7793 235.159 96.324C234.627 96.8687 234.361 97.6033 234.361 98.528V104H232.822V97.122C232.822 96.134 232.771 95.241 232.67 94.443H234.133L234.285 96.153C234.576 95.5323 235.013 95.0573 235.596 94.728C236.179 94.386 236.844 94.215 237.591 94.215ZM252.353 90.016V104H250.833V102.271C250.554 102.866 250.13 103.329 249.56 103.658C249.003 103.975 248.35 104.133 247.603 104.133C246.767 104.133 246.026 103.924 245.38 103.506C244.747 103.088 244.253 102.505 243.898 101.758C243.543 100.998 243.366 100.124 243.366 99.136C243.366 98.148 243.537 97.2867 243.879 96.552C244.234 95.8047 244.734 95.2283 245.38 94.823C246.026 94.4177 246.767 94.215 247.603 94.215C248.35 94.215 249.003 94.3797 249.56 94.709C250.117 95.0257 250.535 95.4753 250.814 96.058V90.016H252.353ZM247.907 102.86C248.844 102.86 249.566 102.543 250.073 101.91C250.58 101.264 250.833 100.352 250.833 99.174C250.833 98.0087 250.58 97.1093 250.073 96.476C249.566 95.83 248.844 95.507 247.907 95.507C246.97 95.507 246.235 95.8237 245.703 96.457C245.184 97.0903 244.924 97.9833 244.924 99.136C244.924 100.314 245.184 101.232 245.703 101.891C246.235 102.537 246.97 102.86 247.907 102.86ZM263.513 104.133C261.904 104.133 260.631 103.721 259.694 102.898L260.207 101.758C260.726 102.163 261.252 102.455 261.784 102.632C262.316 102.809 262.911 102.898 263.57 102.898C264.292 102.898 264.836 102.778 265.204 102.537C265.584 102.284 265.774 101.923 265.774 101.454C265.774 101.074 265.647 100.77 265.394 100.542C265.14 100.314 264.722 100.137 264.14 100.01L262.525 99.63C261.727 99.4527 261.106 99.136 260.663 98.68C260.232 98.224 260.017 97.6793 260.017 97.046C260.017 96.21 260.352 95.5323 261.024 95.013C261.695 94.481 262.582 94.215 263.684 94.215C264.355 94.215 264.988 94.3227 265.584 94.538C266.179 94.7533 266.679 95.0637 267.085 95.469L266.572 96.59C265.672 95.8427 264.71 95.469 263.684 95.469C263 95.469 262.468 95.602 262.088 95.868C261.72 96.1213 261.537 96.4823 261.537 96.951C261.537 97.3437 261.651 97.654 261.879 97.882C262.119 98.11 262.499 98.2873 263.019 98.414L264.634 98.813C265.52 99.0157 266.179 99.3323 266.61 99.763C267.04 100.181 267.256 100.732 267.256 101.416C267.256 102.239 266.92 102.898 266.249 103.392C265.577 103.886 264.665 104.133 263.513 104.133ZM277.708 99.174H270.697C270.709 100.39 270.988 101.308 271.533 101.929C272.09 102.55 272.894 102.86 273.946 102.86C275.06 102.86 276.086 102.486 277.024 101.739L277.537 102.86C277.119 103.253 276.58 103.563 275.922 103.791C275.276 104.019 274.611 104.133 273.927 104.133C272.432 104.133 271.26 103.696 270.412 102.822C269.563 101.935 269.139 100.726 269.139 99.193C269.139 98.2177 269.329 97.3563 269.709 96.609C270.089 95.849 270.621 95.26 271.305 94.842C271.989 94.424 272.768 94.215 273.642 94.215C274.908 94.215 275.903 94.633 276.625 95.469C277.347 96.2923 277.708 97.4323 277.708 98.889V99.174ZM273.661 95.412C272.863 95.412 272.21 95.6527 271.704 96.134C271.21 96.6153 270.893 97.293 270.754 98.167H276.321C276.245 97.2677 275.979 96.5837 275.523 96.115C275.079 95.6463 274.459 95.412 273.661 95.412ZM284.053 104.133C283.128 104.133 282.317 103.93 281.621 103.525C280.937 103.12 280.405 102.55 280.025 101.815C279.657 101.068 279.474 100.2 279.474 99.212C279.474 98.224 279.664 97.3563 280.044 96.609C280.424 95.849 280.962 95.26 281.659 94.842C282.368 94.424 283.191 94.215 284.129 94.215C284.775 94.215 285.395 94.329 285.991 94.557C286.599 94.7723 287.099 95.0763 287.492 95.469L286.979 96.609C286.497 96.229 286.029 95.9503 285.573 95.773C285.129 95.5957 284.673 95.507 284.205 95.507C283.229 95.507 282.463 95.8363 281.906 96.495C281.348 97.141 281.07 98.0467 281.07 99.212C281.07 100.365 281.342 101.264 281.887 101.91C282.444 102.543 283.217 102.86 284.205 102.86C284.673 102.86 285.129 102.771 285.573 102.594C286.029 102.417 286.497 102.138 286.979 101.758L287.492 102.898C287.086 103.278 286.573 103.582 285.953 103.81C285.345 104.025 284.711 104.133 284.053 104.133ZM297.45 94.443V104H295.949V102.347C295.645 102.93 295.22 103.373 294.676 103.677C294.131 103.981 293.517 104.133 292.833 104.133C291.705 104.133 290.85 103.816 290.268 103.183C289.685 102.55 289.394 101.612 289.394 100.371V94.443H290.933V100.333C290.933 101.194 291.11 101.828 291.465 102.233C291.819 102.638 292.358 102.841 293.08 102.841C293.928 102.841 294.612 102.569 295.132 102.024C295.651 101.467 295.911 100.738 295.911 99.839V94.443H297.45ZM304.863 94.215C305.179 94.215 305.471 94.253 305.737 94.329L305.699 95.735C305.407 95.6337 305.072 95.583 304.692 95.583C303.767 95.583 303.077 95.8743 302.621 96.457C302.177 97.027 301.956 97.7237 301.956 98.547V104H300.417V97.122C300.417 96.134 300.366 95.241 300.265 94.443H301.728L301.88 96.21C302.12 95.564 302.507 95.07 303.039 94.728C303.571 94.386 304.179 94.215 304.863 94.215ZM315.114 99.174H308.103C308.115 100.39 308.394 101.308 308.939 101.929C309.496 102.55 310.3 102.86 311.352 102.86C312.466 102.86 313.492 102.486 314.43 101.739L314.943 102.86C314.525 103.253 313.986 103.563 313.328 103.791C312.682 104.019 312.017 104.133 311.333 104.133C309.838 104.133 308.666 103.696 307.818 102.822C306.969 101.935 306.545 100.726 306.545 99.193C306.545 98.2177 306.735 97.3563 307.115 96.609C307.495 95.849 308.027 95.26 308.711 94.842C309.395 94.424 310.174 94.215 311.048 94.215C312.314 94.215 313.309 94.633 314.031 95.469C314.753 96.2923 315.114 97.4323 315.114 98.889V99.174ZM311.067 95.412C310.269 95.412 309.616 95.6527 309.11 96.134C308.616 96.6153 308.299 97.293 308.16 98.167H313.727C313.651 97.2677 313.385 96.5837 312.929 96.115C312.485 95.6463 311.865 95.412 311.067 95.412ZM317.45 90.016H318.989V104H317.45V90.016ZM330.375 94.443L325.91 104.874C325.441 105.963 324.852 106.761 324.143 107.268C323.434 107.775 322.56 108.123 321.521 108.313L321.198 107.116C322.097 106.913 322.775 106.641 323.231 106.299C323.7 105.97 324.086 105.457 324.39 104.76L324.77 103.905L320.723 94.443H322.338L325.568 102.328L328.836 94.443H330.375ZM333.818 90.472V91.859C333.818 92.391 333.729 92.8787 333.552 93.322C333.374 93.7653 333.077 94.2023 332.659 94.633L331.937 94.063C332.431 93.493 332.709 92.9483 332.773 92.429H331.861V90.472H333.818ZM337.01 90.472V91.859C337.01 92.391 336.921 92.8787 336.744 93.322C336.566 93.7653 336.269 94.2023 335.851 94.633L335.129 94.063C335.623 93.493 335.901 92.9483 335.965 92.429H335.053V90.472H337.01Z" fill="white" fill-opacity="0.9"/>
</svg>
